{
	"asset":{
		"generator":"Khronos glTF Blender I/O v3.5.30",
		"version":"2.0"
	},
	"scene":0,
	"scenes":[
		{
			"extras":{
				"automirror":{
					"orientation":1,
					"axis":1
				}
			},
			"name":"Scene",
			"nodes":[
				0
			]
		}
	],
	"nodes":[
		{
			"mesh":0,
			"name":"Cube.002",
			"rotation":[
				0,
				-1,
				0,
				1.6292068494294654e-07
			],
			"translation":[
				-27.39199447631836,
				0.4097369909286499,
				6.2100419998168945
			]
		}
	],
	"materials":[
		{
			"doubleSided":true,
			"emissiveFactor":[
				1,
				1,
				1
			],
			"emissiveTexture":{
				"index":0
			},
			"name":"Material.017",
			"pbrMetallicRoughness":{
				"baseColorFactor":[
					0,
					0,
					0,
					1
				]
			}
		}
	],
	"meshes":[
		{
			"name":"Cube.023",
			"primitives":[
				{
					"attributes":{
						"COLOR_0":0,
						"POSITION":1,
						"TEXCOORD_0":2,
						"NORMAL":3
					},
					"indices":4,
					"material":0
				}
			]
		}
	],
	"textures":[
		{
			"sampler":0,
			"source":0
		}
	],
	"images":[
		{
			
			"name":"ExpHouses",
			"uri":"ExpHouses.blend_Houses2_lightmap.ktx2"
		}
	],
	"accessors":[
		{
			"bufferView":0,
			"componentType":5123,
			"count":15286,
			"normalized":true,
			"type":"VEC4"
		},
		{
			"bufferView":1,
			"componentType":5126,
			"count":15286,
			"max":[
				25.09911346435547,
				4.466025352478027,
				23.43407440185547
			],
			"min":[
				-27.963184356689453,
				-0.3474555015563965,
				-5.213384628295898
			],
			"type":"VEC3"
		},
		{
			"bufferView":2,
			"componentType":5126,
			"count":15286,
			"type":"VEC2"
		},
		{
			"bufferView":3,
			"componentType":5126,
			"count":15286,
			"type":"VEC3"
		},
		{
			"bufferView":4,
			"componentType":5123,
			"count":30816,
			"type":"SCALAR"
		}
	],
	"bufferViews":[
		{
			"buffer":0,
			"byteLength":122288,
			"byteOffset":0,
			"target":34962
		},
		{
			"buffer":0,
			"byteLength":183432,
			"byteOffset":122288,
			"target":34962
		},
		{
			"buffer":0,
			"byteLength":122288,
			"byteOffset":305720,
			"target":34962
		},
		{
			"buffer":0,
			"byteLength":183432,
			"byteOffset":428008,
			"target":34962
		},
		{
			"buffer":0,
			"byteLength":61632,
			"byteOffset":611440,
			"target":34963
		}
	],
	"samplers":[
		{
			"magFilter":9729,
			"minFilter":9987
		}
	],
	"buffers":[
		{
			"byteLength":673072,
			"uri":"ExpHouses.blend_Houses2.bin"
		}
	]
}
