{
	"asset":{
		"generator":"Khronos glTF Blender I/O v3.5.30",
		"version":"2.0"
	},
	"scene":0,
	"scenes":[
		{
			"extras":{
				"automirror":{
					"orientation":1,
					"axis":1
				}
			},
			"name":"Scene",
			"nodes":[
				0
			]
		}
	],
	"nodes":[
		{
			"extras":{
				"ant_landscape":{}
			},
			"mesh":0,
			"name":"Ground",
			"translation":[
				-18.389129638671875,
				-0.010622560977935791,
				-10.154213905334473
			]
		}
	],
	"materials":[
		{
			"doubleSided":true,
			"emissiveFactor":[
				1,
				1,
				1
			],
			"emissiveTexture":{
				"index":0
			},
			"name":"Material",
			"pbrMetallicRoughness":{
				"baseColorFactor":[
					0,
					0,
					0,
					1
				]
			}
		}
	],
	"meshes":[
		{
			"name":"Plane",
			"primitives":[
				{
					"attributes":{
						"COLOR_0":0,
						"POSITION":1,
						"TEXCOORD_0":2,
						"NORMAL":3
					},
					"indices":4,
					"material":0
				}
			]
		}
	],
	"textures":[
		{
			"sampler":0,
			"source":0
		}
	],
	"images":[
		{
			
			"name":"exphouses_structure_lightmap",
			"uri":"exphouses_structure_lightmap.ktx2"
		}
	],
	"accessors":[
		{
			"bufferView":0,
			"componentType":5123,
			"count":4718,
			"normalized":true,
			"type":"VEC4"
		},
		{
			"bufferView":1,
			"componentType":5126,
			"count":4718,
			"max":[
				22.061098098754883,
				2.114396810531616,
				23.957721710205078
			],
			"min":[
				-66.89865112304688,
				-6.332993507385254e-08,
				-12.899200439453125
			],
			"type":"VEC3"
		},
		{
			"bufferView":2,
			"componentType":5126,
			"count":4718,
			"type":"VEC2"
		},
		{
			"bufferView":3,
			"componentType":5126,
			"count":4718,
			"type":"VEC3"
		},
		{
			"bufferView":4,
			"componentType":5123,
			"count":13458,
			"type":"SCALAR"
		}
	],
	"bufferViews":[
		{
			"buffer":0,
			"byteLength":37744,
			"byteOffset":0,
			"target":34962
		},
		{
			"buffer":0,
			"byteLength":56616,
			"byteOffset":37744,
			"target":34962
		},
		{
			"buffer":0,
			"byteLength":37744,
			"byteOffset":94360,
			"target":34962
		},
		{
			"buffer":0,
			"byteLength":56616,
			"byteOffset":132104,
			"target":34962
		},
		{
			"buffer":0,
			"byteLength":26916,
			"byteOffset":188720,
			"target":34963
		}
	],
	"samplers":[
		{
			"magFilter":9729,
			"minFilter":9987
		}
	],
	"buffers":[
		{
			"byteLength":215636,
			"uri":"exphouses_structure.bin"
		}
	]
}
