{
	"asset":{
		"generator":"Khronos glTF Blender I/O v3.5.30",
		"version":"2.0"
	},
	"scene":0,
	"scenes":[
		{
			"extras":{
				"automirror":{
					"orientation":1,
					"axis":1
				}
			},
			"name":"Scene",
			"nodes":[
				0
			]
		}
	],
	"nodes":[
		{
			"mesh":0,
			"name":"Light Bulb.003",
			"translation":[
				-65.8441162109375,
				3.735914468765259,
				-20.95291519165039
			]
		}
	],
	"materials":[
		{
			"doubleSided":true,
			"emissiveFactor":[
				1,
				1,
				1
			],
			"emissiveTexture":{
				"index":0
			},
			"name":"Material.018",
			"pbrMetallicRoughness":{
				"baseColorFactor":[
					0,
					0,
					0,
					1
				]
			}
		}
	],
	"meshes":[
		{
			"name":"Sphere.003",
			"primitives":[
				{
					"attributes":{
						"COLOR_0":0,
						"POSITION":1,
						"TEXCOORD_0":2,
						"NORMAL":3
					},
					"indices":4,
					"material":0
				}
			]
		}
	],
	"textures":[
		{
			"sampler":0,
			"source":0
		}
	],
	"images":[
		{
			
			"name":"exphouses_props_lightmap",
			"uri":"exphouses_props_lightmap.ktx2"
		}
	],
	"accessors":[
		{
			"bufferView":0,
			"componentType":5123,
			"count":6270,
			"normalized":true,
			"type":"VEC4"
		},
		{
			"bufferView":1,
			"componentType":5126,
			"count":6270,
			"max":[
				65.73535919189453,
				0.3273771107196808,
				20.901920318603516
			],
			"min":[
				-8.511959075927734,
				-3.662137746810913,
				-0.6455222368240356
			],
			"type":"VEC3"
		},
		{
			"bufferView":2,
			"componentType":5126,
			"count":6270,
			"type":"VEC2"
		},
		{
			"bufferView":3,
			"componentType":5126,
			"count":6270,
			"type":"VEC3"
		},
		{
			"bufferView":4,
			"componentType":5123,
			"count":21252,
			"type":"SCALAR"
		}
	],
	"bufferViews":[
		{
			"buffer":0,
			"byteLength":50160,
			"byteOffset":0,
			"target":34962
		},
		{
			"buffer":0,
			"byteLength":75240,
			"byteOffset":50160,
			"target":34962
		},
		{
			"buffer":0,
			"byteLength":50160,
			"byteOffset":125400,
			"target":34962
		},
		{
			"buffer":0,
			"byteLength":75240,
			"byteOffset":175560,
			"target":34962
		},
		{
			"buffer":0,
			"byteLength":42504,
			"byteOffset":250800,
			"target":34963
		}
	],
	"samplers":[
		{
			"magFilter":9729,
			"minFilter":9987
		}
	],
	"buffers":[
		{
			"byteLength":293304,
			"uri":"exphouses_props.bin"
		}
	]
}
