{
	"asset":{
		"generator":"Khronos glTF Blender I/O v3.5.30",
		"version":"2.0"
	},
	"scene":0,
	"scenes":[
		{
			"extras":{
				"automirror":{
					"orientation":1,
					"axis":1
				}
			},
			"name":"Scene",
			"nodes":[
				0
			]
		}
	],
	"nodes":[
		{
			"extras":{
				"ant_landscape":{}
			},
			"mesh":0,
			"name":"Ground",
			"translation":[
				-18.389129638671875,
				-0.010622560977935791,
				-10.154213905334473
			]
		}
	],
	"materials":[
		{
			"doubleSided":true,
			"emissiveFactor":[
				1,
				1,
				1
			],
			"emissiveTexture":{
				"index":0
			},
			"name":"Material",
			"pbrMetallicRoughness":{
				"baseColorFactor":[
					0,
					0,
					0,
					1
				]
			}
		}
	],
	"meshes":[
		{
			"name":"Plane",
			"primitives":[
				{
					"attributes":{
						"COLOR_0":0,
						"POSITION":1,
						"TEXCOORD_0":2,
						"NORMAL":3
					},
					"indices":4,
					"material":0
				}
			]
		}
	],
	"textures":[
		{
			"sampler":0,
			"source":0
		}
	],
	"images":[
		{
			
			"name":"ExpHouses",
			"uri":"ExpHouses.blend_Structure_lightmap.ktx2"
		}
	],
	"accessors":[
		{
			"bufferView":0,
			"componentType":5123,
			"count":5761,
			"normalized":true,
			"type":"VEC4"
		},
		{
			"bufferView":1,
			"componentType":5126,
			"count":5761,
			"max":[
				22.061098098754883,
				9.12624740600586,
				23.957721710205078
			],
			"min":[
				-66.89865112304688,
				-1.4013421535491943,
				-17.56989288330078
			],
			"type":"VEC3"
		},
		{
			"bufferView":2,
			"componentType":5126,
			"count":5761,
			"type":"VEC2"
		},
		{
			"bufferView":3,
			"componentType":5126,
			"count":5761,
			"type":"VEC3"
		},
		{
			"bufferView":4,
			"componentType":5123,
			"count":15408,
			"type":"SCALAR"
		}
	],
	"bufferViews":[
		{
			"buffer":0,
			"byteLength":46088,
			"byteOffset":0,
			"target":34962
		},
		{
			"buffer":0,
			"byteLength":69132,
			"byteOffset":46088,
			"target":34962
		},
		{
			"buffer":0,
			"byteLength":46088,
			"byteOffset":115220,
			"target":34962
		},
		{
			"buffer":0,
			"byteLength":69132,
			"byteOffset":161308,
			"target":34962
		},
		{
			"buffer":0,
			"byteLength":30816,
			"byteOffset":230440,
			"target":34963
		}
	],
	"samplers":[
		{
			"magFilter":9729,
			"minFilter":9987
		}
	],
	"buffers":[
		{
			"byteLength":261256,
			"uri":"ExpHouses.blend_Structure.bin"
		}
	]
}
