{
	"asset":{
		"generator":"Khronos glTF Blender I/O v3.5.30",
		"version":"2.0"
	},
	"scene":0,
	"scenes":[
		{
			"extras":{
				"automirror":{
					"orientation":1,
					"axis":1
				}
			},
			"name":"Scene",
			"nodes":[
				0
			]
		}
	],
	"nodes":[
		{
			"extras":{
				"ant_landscape":{}
			},
			"mesh":0,
			"name":"Text",
			"rotation":[
				0.7071068286895752,
				0,
				0,
				0.7071068286895752
			],
			"translation":[
				-0.03283387050032616,
				0.4418540298938751,
				0.015151988714933395
			]
		}
	],
	"materials":[
		{
			"doubleSided":true,
			"emissiveFactor":[
				1,
				1,
				1
			],
			"emissiveTexture":{
				"index":0
			},
			"name":"Material.022",
			"pbrMetallicRoughness":{
				"baseColorFactor":[
					0,
					0,
					0,
					1
				]
			}
		}
	],
	"meshes":[
		{
			"name":"Text.001",
			"primitives":[
				{
					"attributes":{
						"COLOR_0":0,
						"POSITION":1,
						"TEXCOORD_0":2,
						"NORMAL":3
					},
					"indices":4,
					"material":0
				}
			]
		}
	],
	"textures":[
		{
			"sampler":0,
			"source":0
		}
	],
	"images":[
		{
			
			"name":"ExpHouses",
			"uri":"ExpHouses.blend_ClockPackage_lightmap.ktx2"
		}
	],
	"accessors":[
		{
			"bufferView":0,
			"componentType":5123,
			"count":10711,
			"normalized":true,
			"type":"VEC4"
		},
		{
			"bufferView":1,
			"componentType":5126,
			"count":10711,
			"max":[
				0.12190167605876923,
				0.04720516502857208,
				0.1044163852930069
			],
			"min":[
				-0.05563759431242943,
				-0.07939216494560242,
				-0.019590646028518677
			],
			"type":"VEC3"
		},
		{
			"bufferView":2,
			"componentType":5126,
			"count":10711,
			"type":"VEC2"
		},
		{
			"bufferView":3,
			"componentType":5126,
			"count":10711,
			"type":"VEC3"
		},
		{
			"bufferView":4,
			"componentType":5123,
			"count":23991,
			"type":"SCALAR"
		}
	],
	"bufferViews":[
		{
			"buffer":0,
			"byteLength":85688,
			"byteOffset":0,
			"target":34962
		},
		{
			"buffer":0,
			"byteLength":128532,
			"byteOffset":85688,
			"target":34962
		},
		{
			"buffer":0,
			"byteLength":85688,
			"byteOffset":214220,
			"target":34962
		},
		{
			"buffer":0,
			"byteLength":128532,
			"byteOffset":299908,
			"target":34962
		},
		{
			"buffer":0,
			"byteLength":47982,
			"byteOffset":428440,
			"target":34963
		}
	],
	"samplers":[
		{
			"magFilter":9729,
			"minFilter":9987
		}
	],
	"buffers":[
		{
			"byteLength":476424,
			"uri":"ExpHouses.blend_ClockPackage.bin"
		}
	]
}
