{
	"asset":{
		"generator":"Khronos glTF Blender I/O v3.5.30",
		"version":"2.0"
	},
	"scene":0,
	"scenes":[
		{
			"extras":{
				"automirror":{
					"orientation":1,
					"axis":1
				}
			},
			"name":"Scene",
			"nodes":[
				0
			]
		}
	],
	"nodes":[
		{
			"extras":{
				"ant_landscape":{}
			},
			"mesh":0,
			"name":"Plane.198",
			"translation":[
				-13.893878936767578,
				0.07681798189878464,
				-9.730573654174805
			]
		}
	],
	"materials":[
		{
			"doubleSided":true,
			"emissiveFactor":[
				1,
				1,
				1
			],
			"emissiveTexture":{
				"index":0
			},
			"name":"Material.019",
			"pbrMetallicRoughness":{
				"baseColorFactor":[
					0,
					0,
					0,
					1
				]
			}
		}
	],
	"meshes":[
		{
			"name":"Plane.016",
			"primitives":[
				{
					"attributes":{
						"COLOR_0":0,
						"POSITION":1,
						"TEXCOORD_0":2,
						"NORMAL":3
					},
					"indices":4,
					"material":0
				}
			]
		}
	],
	"textures":[
		{
			"sampler":0,
			"source":0
		}
	],
	"images":[
		{
			
			"name":"ExpHouses",
			"uri":"ExpHouses.blend_Grass3D_lightmap.ktx2"
		}
	],
	"accessors":[
		{
			"bufferView":0,
			"componentType":5123,
			"count":1087,
			"normalized":true,
			"type":"VEC4"
		},
		{
			"bufferView":1,
			"componentType":5126,
			"count":1087,
			"max":[
				15.949827194213867,
				0.26741817593574524,
				21.18100357055664
			],
			"min":[
				-42.839866638183594,
				-0.06158161535859108,
				-7.024394989013672
			],
			"type":"VEC3"
		},
		{
			"bufferView":2,
			"componentType":5126,
			"count":1087,
			"type":"VEC2"
		},
		{
			"bufferView":3,
			"componentType":5126,
			"count":1087,
			"type":"VEC3"
		},
		{
			"bufferView":4,
			"componentType":5123,
			"count":4860,
			"type":"SCALAR"
		}
	],
	"bufferViews":[
		{
			"buffer":0,
			"byteLength":8696,
			"byteOffset":0,
			"target":34962
		},
		{
			"buffer":0,
			"byteLength":13044,
			"byteOffset":8696,
			"target":34962
		},
		{
			"buffer":0,
			"byteLength":8696,
			"byteOffset":21740,
			"target":34962
		},
		{
			"buffer":0,
			"byteLength":13044,
			"byteOffset":30436,
			"target":34962
		},
		{
			"buffer":0,
			"byteLength":9720,
			"byteOffset":43480,
			"target":34963
		}
	],
	"samplers":[
		{
			"magFilter":9729,
			"minFilter":9987
		}
	],
	"buffers":[
		{
			"byteLength":53200,
			"uri":"ExpHouses.blend_Grass3D.bin"
		}
	]
}
