{
	"asset":{
		"generator":"Khronos glTF Blender I/O v3.5.30",
		"version":"2.0"
	},
	"scene":0,
	"scenes":[
		{
			"extras":{
				"automirror":{
					"orientation":1,
					"axis":1
				}
			},
			"name":"Scene",
			"nodes":[
				0
			]
		}
	],
	"nodes":[
		{
			"mesh":0,
			"name":"Roof Fix Section.003",
			"rotation":[
				-1,
				0,
				0,
				1.6292068494294654e-07
			],
			"translation":[
				-16.197925567626953,
				2.5206825733184814,
				-17.127763748168945
			]
		}
	],
	"materials":[
		{
			"doubleSided":true,
			"emissiveFactor":[
				1,
				1,
				1
			],
			"emissiveTexture":{
				"index":0
			},
			"name":"Material.017",
			"pbrMetallicRoughness":{
				"baseColorFactor":[
					0,
					0,
					0,
					1
				]
			}
		}
	],
	"meshes":[
		{
			"name":"Plane.127",
			"primitives":[
				{
					"attributes":{
						"COLOR_0":0,
						"POSITION":1,
						"TEXCOORD_0":2,
						"NORMAL":3
					},
					"indices":4,
					"material":0
				}
			]
		}
	],
	"textures":[
		{
			"sampler":0,
			"source":0
		}
	],
	"images":[
		{
			
			"name":"exphouses_houses2_lightmap",
			"uri":"exphouses_houses2_lightmap.ktx2"
		}
	],
	"accessors":[
		{
			"bufferView":0,
			"componentType":5123,
			"count":15051,
			"normalized":true,
			"type":"VEC4"
		},
		{
			"bufferView":1,
			"componentType":5126,
			"count":15051,
			"max":[
				16.769115447998047,
				2.4584012031555176,
				0.5148897171020508
			],
			"min":[
				-36.523128509521484,
				-2.3550891876220703,
				-28.958757400512695
			],
			"type":"VEC3"
		},
		{
			"bufferView":2,
			"componentType":5126,
			"count":15051,
			"type":"VEC2"
		},
		{
			"bufferView":3,
			"componentType":5126,
			"count":15051,
			"type":"VEC3"
		},
		{
			"bufferView":4,
			"componentType":5123,
			"count":30696,
			"type":"SCALAR"
		}
	],
	"bufferViews":[
		{
			"buffer":0,
			"byteLength":120408,
			"byteOffset":0,
			"target":34962
		},
		{
			"buffer":0,
			"byteLength":180612,
			"byteOffset":120408,
			"target":34962
		},
		{
			"buffer":0,
			"byteLength":120408,
			"byteOffset":301020,
			"target":34962
		},
		{
			"buffer":0,
			"byteLength":180612,
			"byteOffset":421428,
			"target":34962
		},
		{
			"buffer":0,
			"byteLength":61392,
			"byteOffset":602040,
			"target":34963
		}
	],
	"samplers":[
		{
			"magFilter":9729,
			"minFilter":9987
		}
	],
	"buffers":[
		{
			"byteLength":663432,
			"uri":"exphouses_houses2.bin"
		}
	]
}
