{
	"asset":{
		"generator":"Khronos glTF Blender I/O v3.5.30",
		"version":"2.0"
	},
	"scene":0,
	"scenes":[
		{
			"extras":{
				"automirror":{
					"orientation":1,
					"axis":1
				}
			},
			"name":"Scene",
			"nodes":[
				0
			]
		}
	],
	"nodes":[
		{
			"mesh":0,
			"name":"Text.001",
			"rotation":[
				0.23421810567378998,
				-0.0005781737272627652,
				0.0005781736690551043,
				0.9721838235855103
			],
			"translation":[
				-47.70146179199219,
				-0.00561311561614275,
				-5.377160549163818
			]
		}
	],
	"materials":[
		{
			"doubleSided":true,
			"emissiveFactor":[
				1,
				1,
				1
			],
			"emissiveTexture":{
				"index":0
			},
			"name":"Material.001",
			"pbrMetallicRoughness":{
				"baseColorFactor":[
					0,
					0,
					0,
					1
				]
			}
		}
	],
	"meshes":[
		{
			"name":"Text.002",
			"primitives":[
				{
					"attributes":{
						"COLOR_0":0,
						"POSITION":1,
						"TEXCOORD_0":2,
						"NORMAL":3
					},
					"indices":4,
					"material":0
				}
			]
		}
	],
	"textures":[
		{
			"sampler":0,
			"source":0
		}
	],
	"images":[
		{
			
			"name":"exphouses_clockpackage_lightmap",
			"uri":"exphouses_clockpackage_lightmap.ktx2"
		}
	],
	"accessors":[
		{
			"bufferView":0,
			"componentType":5123,
			"count":11900,
			"normalized":true,
			"type":"VEC4"
		},
		{
			"bufferView":1,
			"componentType":5126,
			"count":11900,
			"max":[
				0.2954123020172119,
				-0.00031305960146710277,
				0.0009117127046920359
			],
			"min":[
				-3.035062789916992,
				-3.3145108222961426,
				-6.860152721405029
			],
			"type":"VEC3"
		},
		{
			"bufferView":2,
			"componentType":5126,
			"count":11900,
			"type":"VEC2"
		},
		{
			"bufferView":3,
			"componentType":5126,
			"count":11900,
			"type":"VEC3"
		},
		{
			"bufferView":4,
			"componentType":5123,
			"count":20382,
			"type":"SCALAR"
		}
	],
	"bufferViews":[
		{
			"buffer":0,
			"byteLength":95200,
			"byteOffset":0,
			"target":34962
		},
		{
			"buffer":0,
			"byteLength":142800,
			"byteOffset":95200,
			"target":34962
		},
		{
			"buffer":0,
			"byteLength":95200,
			"byteOffset":238000,
			"target":34962
		},
		{
			"buffer":0,
			"byteLength":142800,
			"byteOffset":333200,
			"target":34962
		},
		{
			"buffer":0,
			"byteLength":40764,
			"byteOffset":476000,
			"target":34963
		}
	],
	"samplers":[
		{
			"magFilter":9729,
			"minFilter":9987
		}
	],
	"buffers":[
		{
			"byteLength":516764,
			"uri":"exphouses_clockpackage.bin"
		}
	]
}
