{
	"asset":{
		"generator":"Khronos glTF Blender I/O v3.5.30",
		"version":"2.0"
	},
	"scene":0,
	"scenes":[
		{
			"extras":{
				"automirror":{
					"orientation":1,
					"axis":1
				}
			},
			"name":"Scene",
			"nodes":[
				0
			]
		}
	],
	"nodes":[
		{
			"mesh":0,
			"name":"Cube.007",
			"rotation":[
				0,
				-1,
				0,
				1.6292068494294654e-07
			],
			"translation":[
				-19.230934143066406,
				0.9122934341430664,
				3.394430160522461
			]
		}
	],
	"materials":[
		{
			"doubleSided":true,
			"emissiveFactor":[
				1,
				1,
				1
			],
			"emissiveTexture":{
				"index":0
			},
			"name":"Material.008",
			"pbrMetallicRoughness":{
				"baseColorFactor":[
					0,
					0,
					0,
					1
				]
			}
		}
	],
	"meshes":[
		{
			"name":"Cube.010",
			"primitives":[
				{
					"attributes":{
						"COLOR_0":0,
						"POSITION":1,
						"TEXCOORD_0":2,
						"NORMAL":3
					},
					"indices":4,
					"material":0
				}
			]
		}
	],
	"textures":[
		{
			"sampler":0,
			"source":0
		}
	],
	"images":[
		{
			
			"name":"ExpHouses",
			"uri":"ExpHouses.blend_Houses_lightmap.ktx2"
		}
	],
	"accessors":[
		{
			"bufferView":0,
			"componentType":5123,
			"count":35683,
			"normalized":true,
			"type":"VEC4"
		},
		{
			"bufferView":1,
			"componentType":5126,
			"count":35683,
			"max":[
				35.48699951171875,
				3.9634690284729004,
				21.358304977416992
			],
			"min":[
				-21.15635108947754,
				-0.8500120043754578,
				-8.768836975097656
			],
			"type":"VEC3"
		},
		{
			"bufferView":2,
			"componentType":5126,
			"count":35683,
			"type":"VEC2"
		},
		{
			"bufferView":3,
			"componentType":5126,
			"count":35683,
			"type":"VEC3"
		},
		{
			"bufferView":4,
			"componentType":5123,
			"count":66936,
			"type":"SCALAR"
		}
	],
	"bufferViews":[
		{
			"buffer":0,
			"byteLength":285464,
			"byteOffset":0,
			"target":34962
		},
		{
			"buffer":0,
			"byteLength":428196,
			"byteOffset":285464,
			"target":34962
		},
		{
			"buffer":0,
			"byteLength":285464,
			"byteOffset":713660,
			"target":34962
		},
		{
			"buffer":0,
			"byteLength":428196,
			"byteOffset":999124,
			"target":34962
		},
		{
			"buffer":0,
			"byteLength":133872,
			"byteOffset":1427320,
			"target":34963
		}
	],
	"samplers":[
		{
			"magFilter":9729,
			"minFilter":9987
		}
	],
	"buffers":[
		{
			"byteLength":1561192,
			"uri":"ExpHouses.blend_Houses.bin"
		}
	]
}
