{
	"asset":{
		"generator":"Khronos glTF Blender I/O v3.5.30",
		"version":"2.0"
	},
	"extensionsUsed":[
		"KHR_materials_unlit"
	],
	"scene":0,
	"scenes":[
		{
			"extras":{
				"automirror":{
					"orientation":1,
					"axis":1
				}
			},
			"name":"Scene",
			"nodes":[
				0
			]
		}
	],
	"nodes":[
		{
			"mesh":0,
			"name":"Plane.215",
			"rotation":[
				0,
				0.8004131317138672,
				0,
				0.5994488596916199
			],
			"translation":[
				-117.37986755371094,
				0.2801975607872009,
				-1.4505224227905273
			]
		}
	],
	"materials":[
		{
			"doubleSided":true,
			"extensions":{
				"KHR_materials_unlit":{}
			},
			"name":"Black Matte",
			"pbrMetallicRoughness":{
				"metallicFactor":0,
				"roughnessFactor":0.9
			}
		}
	],
	"meshes":[
		{
			"name":"Plane.134",
			"primitives":[
				{
					"attributes":{
						"COLOR_0":0,
						"POSITION":1,
						"TEXCOORD_0":2,
						"NORMAL":3,
						"TANGENT":4
					},
					"indices":5,
					"material":0
				}
			]
		}
	],
	"accessors":[
		{
			"bufferView":0,
			"componentType":5123,
			"count":1195,
			"normalized":true,
			"type":"VEC4"
		},
		{
			"bufferView":1,
			"componentType":5126,
			"count":1195,
			"max":[
				120.92646026611328,
				7.123942852020264,
				209.23780822753906
			],
			"min":[
				-163.31398010253906,
				-0.9414479732513428,
				-75.00263977050781
			],
			"type":"VEC3"
		},
		{
			"bufferView":2,
			"componentType":5126,
			"count":1195,
			"type":"VEC2"
		},
		{
			"bufferView":3,
			"componentType":5126,
			"count":1195,
			"type":"VEC3"
		},
		{
			"bufferView":4,
			"componentType":5126,
			"count":1195,
			"type":"VEC4"
		},
		{
			"bufferView":5,
			"componentType":5123,
			"count":1944,
			"type":"SCALAR"
		}
	],
	"bufferViews":[
		{
			"buffer":0,
			"byteLength":9560,
			"byteOffset":0,
			"target":34962
		},
		{
			"buffer":0,
			"byteLength":14340,
			"byteOffset":9560,
			"target":34962
		},
		{
			"buffer":0,
			"byteLength":9560,
			"byteOffset":23900,
			"target":34962
		},
		{
			"buffer":0,
			"byteLength":14340,
			"byteOffset":33460,
			"target":34962
		},
		{
			"buffer":0,
			"byteLength":19120,
			"byteOffset":47800,
			"target":34962
		},
		{
			"buffer":0,
			"byteLength":3888,
			"byteOffset":66920,
			"target":34963
		}
	],
	"buffers":[
		{
			"byteLength":70808,
			"uri":"houses_fake.bin"
		}
	]
}
