{
	"asset":{
		"generator":"Khronos glTF Blender I/O v3.5.30",
		"version":"2.0"
	},
	"scene":0,
	"scenes":[
		{
			"name":"Scene",
			"nodes":[
				0
			]
		}
	],
	"nodes":[
		{
			"mesh":0,
			"name":"Cube.033",
			"rotation":[
				0.2151033878326416,
				-0.21510334312915802,
				-0.673595130443573,
				0.6735953092575073
			],
			"translation":[
				-0.920722484588623,
				14.828170776367188,
				-192.49456787109375
			]
		}
	],
	"materials":[
		{
			"doubleSided":true,
			"emissiveFactor":[
				1,
				1,
				1
			],
			"emissiveTexture":{
				"index":0
			},
			"name":"Material",
			"pbrMetallicRoughness":{
				"baseColorFactor":[
					0,
					0,
					0,
					1
				]
			}
		}
	],
	"meshes":[
		{
			"name":"Cube.037",
			"primitives":[
				{
					"attributes":{
						"COLOR_0":0,
						"POSITION":1,
						"TEXCOORD_0":2,
						"NORMAL":3
					},
					"indices":4,
					"material":0
				}
			]
		}
	],
	"textures":[
		{
			"sampler":0,
			"source":0
		}
	],
	"images":[
		{
			
			"name":"expbfa_bfa2_lightmap",
			"uri":"expbfa_bfa2_lightmap.ktx2"
		}
	],
	"accessors":[
		{
			"bufferView":0,
			"componentType":5123,
			"count":1376,
			"normalized":true,
			"type":"VEC4"
		},
		{
			"bufferView":1,
			"componentType":5126,
			"count":1376,
			"max":[
				15.828177452087402,
				138.6630859375,
				187.03318786621094
			],
			"min":[
				-15.34752082824707,
				-22.156394958496094,
				-22.285266876220703
			],
			"type":"VEC3"
		},
		{
			"bufferView":2,
			"componentType":5126,
			"count":1376,
			"type":"VEC2"
		},
		{
			"bufferView":3,
			"componentType":5126,
			"count":1376,
			"type":"VEC3"
		},
		{
			"bufferView":4,
			"componentType":5123,
			"count":2328,
			"type":"SCALAR"
		}
	],
	"bufferViews":[
		{
			"buffer":0,
			"byteLength":11008,
			"byteOffset":0,
			"target":34962
		},
		{
			"buffer":0,
			"byteLength":16512,
			"byteOffset":11008,
			"target":34962
		},
		{
			"buffer":0,
			"byteLength":11008,
			"byteOffset":27520,
			"target":34962
		},
		{
			"buffer":0,
			"byteLength":16512,
			"byteOffset":38528,
			"target":34962
		},
		{
			"buffer":0,
			"byteLength":4656,
			"byteOffset":55040,
			"target":34963
		}
	],
	"samplers":[
		{
			"magFilter":9729,
			"minFilter":9987
		}
	],
	"buffers":[
		{
			"byteLength":59696,
			"uri":"expbfa_bfa2.bin"
		}
	]
}
