{
	"asset":{
		"generator":"Khronos glTF Blender I/O v3.5.30",
		"version":"2.0"
	},
	"scene":0,
	"scenes":[
		{
			"name":"Scene",
			"nodes":[
				0
			]
		}
	],
	"nodes":[
		{
			"mesh":0,
			"name":"Cylinder.002",
			"translation":[
				372.8021545410156,
				20.95334815979004,
				-92.6707763671875
			]
		}
	],
	"materials":[
		{
			"doubleSided":true,
			"emissiveFactor":[
				1,
				1,
				1
			],
			"emissiveTexture":{
				"index":0
			},
			"name":"Material.007",
			"pbrMetallicRoughness":{
				"baseColorFactor":[
					0,
					0,
					0,
					1
				]
			}
		}
	],
	"meshes":[
		{
			"name":"Cylinder.002",
			"primitives":[
				{
					"attributes":{
						"COLOR_0":0,
						"POSITION":1,
						"TEXCOORD_0":2,
						"NORMAL":3
					},
					"indices":4,
					"material":0
				}
			]
		}
	],
	"textures":[
		{
			"sampler":0,
			"source":0
		}
	],
	"images":[
		{
			
			"name":"expbfa_bfa3_lightmap",
			"uri":"expbfa_bfa3_lightmap.ktx2"
		}
	],
	"accessors":[
		{
			"bufferView":0,
			"componentType":5123,
			"count":1400,
			"normalized":true,
			"type":"VEC4"
		},
		{
			"bufferView":1,
			"componentType":5126,
			"count":1400,
			"max":[
				45.06052017211914,
				16.68901252746582,
				85.7342758178711
			],
			"min":[
				-46.33924865722656,
				-32.290283203125,
				-5.157565593719482
			],
			"type":"VEC3"
		},
		{
			"bufferView":2,
			"componentType":5126,
			"count":1400,
			"type":"VEC2"
		},
		{
			"bufferView":3,
			"componentType":5126,
			"count":1400,
			"type":"VEC3"
		},
		{
			"bufferView":4,
			"componentType":5123,
			"count":3576,
			"type":"SCALAR"
		}
	],
	"bufferViews":[
		{
			"buffer":0,
			"byteLength":11200,
			"byteOffset":0,
			"target":34962
		},
		{
			"buffer":0,
			"byteLength":16800,
			"byteOffset":11200,
			"target":34962
		},
		{
			"buffer":0,
			"byteLength":11200,
			"byteOffset":28000,
			"target":34962
		},
		{
			"buffer":0,
			"byteLength":16800,
			"byteOffset":39200,
			"target":34962
		},
		{
			"buffer":0,
			"byteLength":7152,
			"byteOffset":56000,
			"target":34963
		}
	],
	"samplers":[
		{
			"magFilter":9729,
			"minFilter":9987
		}
	],
	"buffers":[
		{
			"byteLength":63152,
			"uri":"expbfa_bfa3.bin"
		}
	]
}
