{
	"asset":{
		"generator":"Khronos glTF Blender I/O v3.5.30",
		"version":"2.0"
	},
	"scene":0,
	"scenes":[
		{
			"extras":{
				"automirror":{
					"orientation":2
				}
			},
			"name":"Scene",
			"nodes":[
				0
			]
		}
	],
	"nodes":[
		{
			"extras":{
				"ant_landscape":{}
			},
			"mesh":0,
			"name":"Time_07:19_Text Emission",
			"rotation":[
				0.5573170185089111,
				-0.43519851565361023,
				0.4351985454559326,
				0.5573170781135559
			],
			"translation":[
				0.9868996143341064,
				1.7858108282089233,
				-0.7373464703559875
			]
		}
	],
	"materials":[
		{
			"doubleSided":true,
			"emissiveFactor":[
				1,
				1,
				1
			],
			"emissiveTexture":{
				"index":0
			},
			"name":"Material.005",
			"pbrMetallicRoughness":{
				"baseColorFactor":[
					0,
					0,
					0,
					1
				]
			}
		}
	],
	"meshes":[
		{
			"name":"Text.002",
			"primitives":[
				{
					"attributes":{
						"COLOR_0":0,
						"POSITION":1,
						"TEXCOORD_0":2,
						"NORMAL":3
					},
					"indices":4,
					"material":0
				}
			]
		}
	],
	"textures":[
		{
			"sampler":0,
			"source":0
		}
	],
	"images":[
		{
			
			"name":"expshower_clock_lightmap",
			"uri":"expshower_clock_lightmap.ktx2"
		}
	],
	"accessors":[
		{
			"bufferView":0,
			"componentType":5123,
			"count":1563,
			"normalized":true,
			"type":"VEC4"
		},
		{
			"bufferView":1,
			"componentType":5126,
			"count":1563,
			"max":[
				0.20506134629249573,
				0.044770658016204834,
				0.20092271268367767
			],
			"min":[
				-0.009908560663461685,
				-0.01947042904794216,
				-0.025838201865553856
			],
			"type":"VEC3"
		},
		{
			"bufferView":2,
			"componentType":5126,
			"count":1563,
			"type":"VEC2"
		},
		{
			"bufferView":3,
			"componentType":5126,
			"count":1563,
			"type":"VEC3"
		},
		{
			"bufferView":4,
			"componentType":5123,
			"count":2343,
			"type":"SCALAR"
		}
	],
	"bufferViews":[
		{
			"buffer":0,
			"byteLength":12504,
			"byteOffset":0,
			"target":34962
		},
		{
			"buffer":0,
			"byteLength":18756,
			"byteOffset":12504,
			"target":34962
		},
		{
			"buffer":0,
			"byteLength":12504,
			"byteOffset":31260,
			"target":34962
		},
		{
			"buffer":0,
			"byteLength":18756,
			"byteOffset":43764,
			"target":34962
		},
		{
			"buffer":0,
			"byteLength":4686,
			"byteOffset":62520,
			"target":34963
		}
	],
	"samplers":[
		{
			"magFilter":9729,
			"minFilter":9987
		}
	],
	"buffers":[
		{
			"byteLength":67208,
			"uri":"expshower_clock.bin"
		}
	]
}
