{
	"asset":{
		"generator":"Khronos glTF Blender I/O v3.5.30",
		"version":"2.0"
	},
	"scene":0,
	"scenes":[
		{
			"extras":{
				"automirror":{
					"orientation":2
				}
			},
			"name":"Scene",
			"nodes":[
				0
			]
		}
	],
	"nodes":[
		{
			"mesh":0,
			"name":"Ceiling",
			"translation":[
				-0.2819879651069641,
				2.7432000637054443,
				0.0228118896484375
			]
		}
	],
	"materials":[
		{
			"doubleSided":true,
			"emissiveFactor":[
				1,
				1,
				1
			],
			"emissiveTexture":{
				"index":0
			},
			"name":"Material.003",
			"pbrMetallicRoughness":{
				"baseColorFactor":[
					0,
					0,
					0,
					1
				]
			}
		}
	],
	"meshes":[
		{
			"name":"Cube.001",
			"primitives":[
				{
					"attributes":{
						"COLOR_0":0,
						"POSITION":1,
						"TEXCOORD_0":2,
						"NORMAL":3
					},
					"indices":4,
					"material":0
				}
			]
		}
	],
	"textures":[
		{
			"sampler":0,
			"source":0
		}
	],
	"images":[
		{
			
			"name":"expshower_structure_lightmap",
			"uri":"expshower_structure_lightmap.ktx2"
		}
	],
	"accessors":[
		{
			"bufferView":0,
			"componentType":5123,
			"count":27554,
			"normalized":true,
			"type":"VEC4"
		},
		{
			"bufferView":1,
			"componentType":5126,
			"count":27554,
			"max":[
				1.3487889766693115,
				-0.1725437045097351,
				0.7391888499259949
			],
			"min":[
				-0.784813404083252,
				-2.7432000637054443,
				-0.924544632434845
			],
			"type":"VEC3"
		},
		{
			"bufferView":2,
			"componentType":5126,
			"count":27554,
			"type":"VEC2"
		},
		{
			"bufferView":3,
			"componentType":5126,
			"count":27554,
			"type":"VEC3"
		},
		{
			"bufferView":4,
			"componentType":5123,
			"count":53637,
			"type":"SCALAR"
		}
	],
	"bufferViews":[
		{
			"buffer":0,
			"byteLength":220432,
			"byteOffset":0,
			"target":34962
		},
		{
			"buffer":0,
			"byteLength":330648,
			"byteOffset":220432,
			"target":34962
		},
		{
			"buffer":0,
			"byteLength":220432,
			"byteOffset":551080,
			"target":34962
		},
		{
			"buffer":0,
			"byteLength":330648,
			"byteOffset":771512,
			"target":34962
		},
		{
			"buffer":0,
			"byteLength":107274,
			"byteOffset":1102160,
			"target":34963
		}
	],
	"samplers":[
		{
			"magFilter":9729,
			"minFilter":9987
		}
	],
	"buffers":[
		{
			"byteLength":1209436,
			"uri":"expshower_structure.bin"
		}
	]
}
