{
	"asset":{
		"generator":"Khronos glTF Blender I/O v3.5.30",
		"version":"2.0"
	},
	"scene":0,
	"scenes":[
		{
			"extras":{
				"automirror":{
					"orientation":2
				}
			},
			"name":"Scene",
			"nodes":[
				0
			]
		}
	],
	"nodes":[
		{
			"mesh":0,
			"name":"Soap",
			"rotation":[
				0,
				0.1174834817647934,
				0,
				0.9930748343467712
			],
			"translation":[
				0.9601711630821228,
				1.063948631286621,
				-0.430170476436615
			]
		}
	],
	"materials":[
		{
			"doubleSided":true,
			"emissiveFactor":[
				1,
				1,
				1
			],
			"emissiveTexture":{
				"index":0
			},
			"name":"Material.004",
			"pbrMetallicRoughness":{
				"baseColorFactor":[
					0,
					0,
					0,
					1
				]
			}
		}
	],
	"meshes":[
		{
			"name":"Cube.002",
			"primitives":[
				{
					"attributes":{
						"COLOR_0":0,
						"POSITION":1,
						"TEXCOORD_0":2,
						"NORMAL":3
					},
					"indices":4,
					"material":0
				}
			]
		}
	],
	"textures":[
		{
			"sampler":0,
			"source":0
		}
	],
	"images":[
		{
			
			"name":"expshower_props_lightmap",
			"uri":"expshower_props_lightmap.ktx2"
		}
	],
	"accessors":[
		{
			"bufferView":0,
			"componentType":5123,
			"count":9157,
			"normalized":true,
			"type":"VEC4"
		},
		{
			"bufferView":1,
			"componentType":5126,
			"count":9157,
			"max":[
				0.15093302726745605,
				0.641356348991394,
				0.06432434916496277
			],
			"min":[
				0.01960446685552597,
				0.3027374744415283,
				-0.36550652980804443
			],
			"type":"VEC3"
		},
		{
			"bufferView":2,
			"componentType":5126,
			"count":9157,
			"type":"VEC2"
		},
		{
			"bufferView":3,
			"componentType":5126,
			"count":9157,
			"type":"VEC3"
		},
		{
			"bufferView":4,
			"componentType":5123,
			"count":15018,
			"type":"SCALAR"
		}
	],
	"bufferViews":[
		{
			"buffer":0,
			"byteLength":73256,
			"byteOffset":0,
			"target":34962
		},
		{
			"buffer":0,
			"byteLength":109884,
			"byteOffset":73256,
			"target":34962
		},
		{
			"buffer":0,
			"byteLength":73256,
			"byteOffset":183140,
			"target":34962
		},
		{
			"buffer":0,
			"byteLength":109884,
			"byteOffset":256396,
			"target":34962
		},
		{
			"buffer":0,
			"byteLength":30036,
			"byteOffset":366280,
			"target":34963
		}
	],
	"samplers":[
		{
			"magFilter":9729,
			"minFilter":9987
		}
	],
	"buffers":[
		{
			"byteLength":396316,
			"uri":"expshower_props.bin"
		}
	]
}
