{
	"asset":{
		"generator":"Khronos glTF Blender I/O v3.5.30",
		"version":"2.0"
	},
	"scene":0,
	"scenes":[
		{
			"extras":{
				"automirror":{
					"orientation":2
				}
			},
			"name":"Scene",
			"nodes":[
				0,
				1,
				2,
				3,
				4,
				5,
				6,
				7
			]
		}
	],
	"nodes":[
		{
			"extras":{
				"ant_landscape":{}
			},
			"mesh":0,
			"name":"LightShaft.006",
			"rotation":[
				-0.3737538456916809,
				0.9058400392532349,
				-0.1893519163131714,
				0.06251215934753418
			],
			"scale":[
				0.2215067744255066,
				0.2215067595243454,
				0.22150671482086182
			],
			"translation":[
				-0.8221717476844788,
				2.2116661071777344,
				-0.435628741979599
			]
		},
		{
			"extras":{
				"ant_landscape":{}
			},
			"mesh":1,
			"name":"LightShaft.001",
			"rotation":[
				-0.3379890024662018,
				0.8836187124252319,
				-0.24760760366916656,
				0.20897817611694336
			],
			"scale":[
				0.2215067595243454,
				0.2215067744255066,
				0.22150671482086182
			],
			"translation":[
				-0.8221717476844788,
				2.2116661071777344,
				-0.435628741979599
			]
		},
		{
			"extras":{
				"ant_landscape":{}
			},
			"mesh":2,
			"name":"LightShaft.002",
			"rotation":[
				0.39727985858917236,
				-0.9053206443786621,
				0.1330970972776413,
				0.06963060051202774
			],
			"scale":[
				0.2215067595243454,
				0.2215067595243454,
				0.221506729722023
			],
			"translation":[
				-0.8221717476844788,
				2.2116661071777344,
				-0.435628741979599
			]
		},
		{
			"extras":{
				"ant_landscape":{}
			},
			"mesh":3,
			"name":"LightShaft.003",
			"rotation":[
				0.4150157868862152,
				-0.5573243498802185,
				0.41553357243537903,
				0.5869271159172058
			],
			"scale":[
				0.2215067744255066,
				0.2215067744255066,
				0.22150671482086182
			],
			"translation":[
				-0.8221717476844788,
				2.2116661071777344,
				-0.435628741979599
			]
		},
		{
			"extras":{
				"ant_landscape":{}
			},
			"mesh":4,
			"name":"LightShaft.004",
			"rotation":[
				0.493368536233902,
				-0.5844827890396118,
				0.4580019414424896,
				0.45299196243286133
			],
			"scale":[
				0.2215067744255066,
				0.2215067744255066,
				0.221506729722023
			],
			"translation":[
				-0.8221717476844788,
				2.2116661071777344,
				-0.435628741979599
			]
		},
		{
			"extras":{
				"ant_landscape":{}
			},
			"mesh":5,
			"name":"LightShaft.005",
			"rotation":[
				0.335751473903656,
				-0.5205590128898621,
				0.36828839778900146,
				0.693291425704956
			],
			"scale":[
				0.2215067744255066,
				0.22150678932666779,
				0.221506729722023
			],
			"translation":[
				-0.8221717476844788,
				2.2116661071777344,
				-0.435628741979599
			]
		},
		{
			"extras":{
				"ant_landscape":{}
			},
			"mesh":6,
			"name":"LightShaft.007",
			"rotation":[
				0.28326794505119324,
				-0.5508810877799988,
				0.29876723885536194,
				0.7259665727615356
			],
			"scale":[
				0.22150678932666779,
				0.2215067595243454,
				0.22150669991970062
			],
			"translation":[
				-0.8221717476844788,
				2.2116661071777344,
				-0.435628741979599
			]
		},
		{
			"extras":{
				"ant_landscape":{}
			},
			"mesh":7,
			"name":"LightShaft.008",
			"rotation":[
				0.2210211604833603,
				-0.5786711573600769,
				0.21718792617321014,
				0.7543995976448059
			],
			"scale":[
				0.2215067744255066,
				0.2215067744255066,
				0.22150671482086182
			],
			"translation":[
				-0.8221717476844788,
				2.2116661071777344,
				-0.435628741979599
			]
		}
	],
	"materials":[
		{
			"alphaMode":"BLEND",
			"doubleSided":true,
			"emissiveFactor":[
				1,
				1,
				1
			],
			"name":"Material.010",
			"pbrMetallicRoughness":{
				"baseColorFactor":[
					0.800000011920929,
					0.800000011920929,
					0.800000011920929,
					1
				],
				"metallicFactor":0,
				"roughnessFactor":0.5
			}
		}
	],
	"meshes":[
		{
			"name":"Plane.104",
			"primitives":[
				{
					"attributes":{
						"POSITION":0,
						"TEXCOORD_0":1,
						"NORMAL":2,
						"TANGENT":3
					},
					"indices":4,
					"material":0
				}
			]
		},
		{
			"name":"Plane.005",
			"primitives":[
				{
					"attributes":{
						"POSITION":5,
						"TEXCOORD_0":6,
						"NORMAL":7,
						"TANGENT":8
					},
					"indices":4,
					"material":0
				}
			]
		},
		{
			"name":"Plane.007",
			"primitives":[
				{
					"attributes":{
						"POSITION":9,
						"TEXCOORD_0":10,
						"NORMAL":11,
						"TANGENT":12
					},
					"indices":4,
					"material":0
				}
			]
		},
		{
			"name":"Plane.008",
			"primitives":[
				{
					"attributes":{
						"POSITION":13,
						"TEXCOORD_0":14,
						"NORMAL":15,
						"TANGENT":16
					},
					"indices":4,
					"material":0
				}
			]
		},
		{
			"name":"Plane.013",
			"primitives":[
				{
					"attributes":{
						"POSITION":17,
						"TEXCOORD_0":18,
						"NORMAL":19,
						"TANGENT":20
					},
					"indices":4,
					"material":0
				}
			]
		},
		{
			"name":"Plane.015",
			"primitives":[
				{
					"attributes":{
						"POSITION":21,
						"TEXCOORD_0":22,
						"NORMAL":23,
						"TANGENT":24
					},
					"indices":4,
					"material":0
				}
			]
		},
		{
			"name":"Plane.017",
			"primitives":[
				{
					"attributes":{
						"POSITION":25,
						"TEXCOORD_0":26,
						"NORMAL":27,
						"TANGENT":28
					},
					"indices":4,
					"material":0
				}
			]
		},
		{
			"name":"Plane.031",
			"primitives":[
				{
					"attributes":{
						"POSITION":29,
						"TEXCOORD_0":30,
						"NORMAL":31,
						"TANGENT":32
					},
					"indices":4,
					"material":0
				}
			]
		}
	],
	"accessors":[
		{
			"bufferView":0,
			"componentType":5126,
			"count":4,
			"max":[
				1.4991830587387085,
				7.185621342387094e-08,
				2.1190223693847656
			],
			"min":[
				-1.9860286712646484,
				-5.256014823913574,
				-0.08464785665273666
			],
			"type":"VEC3"
		},
		{
			"bufferView":1,
			"componentType":5126,
			"count":4,
			"type":"VEC2"
		},
		{
			"bufferView":2,
			"componentType":5126,
			"count":4,
			"type":"VEC3"
		},
		{
			"bufferView":3,
			"componentType":5126,
			"count":4,
			"type":"VEC4"
		},
		{
			"bufferView":4,
			"componentType":5123,
			"count":6,
			"type":"SCALAR"
		},
		{
			"bufferView":5,
			"componentType":5126,
			"count":4,
			"max":[
				1.4991830587387085,
				7.185621342387094e-08,
				2.1190223693847656
			],
			"min":[
				-1.9860286712646484,
				-5.256014823913574,
				-0.08464785665273666
			],
			"type":"VEC3"
		},
		{
			"bufferView":6,
			"componentType":5126,
			"count":4,
			"type":"VEC2"
		},
		{
			"bufferView":7,
			"componentType":5126,
			"count":4,
			"type":"VEC3"
		},
		{
			"bufferView":8,
			"componentType":5126,
			"count":4,
			"type":"VEC4"
		},
		{
			"bufferView":9,
			"componentType":5126,
			"count":4,
			"max":[
				1.4991830587387085,
				7.185621342387094e-08,
				2.1190223693847656
			],
			"min":[
				-1.9860286712646484,
				-5.256014823913574,
				-0.08464785665273666
			],
			"type":"VEC3"
		},
		{
			"bufferView":10,
			"componentType":5126,
			"count":4,
			"type":"VEC2"
		},
		{
			"bufferView":11,
			"componentType":5126,
			"count":4,
			"type":"VEC3"
		},
		{
			"bufferView":12,
			"componentType":5126,
			"count":4,
			"type":"VEC4"
		},
		{
			"bufferView":13,
			"componentType":5126,
			"count":4,
			"max":[
				1.4991830587387085,
				7.185621342387094e-08,
				2.1190223693847656
			],
			"min":[
				-1.9860286712646484,
				-5.256014823913574,
				-0.08464785665273666
			],
			"type":"VEC3"
		},
		{
			"bufferView":14,
			"componentType":5126,
			"count":4,
			"type":"VEC2"
		},
		{
			"bufferView":15,
			"componentType":5126,
			"count":4,
			"type":"VEC3"
		},
		{
			"bufferView":16,
			"componentType":5126,
			"count":4,
			"type":"VEC4"
		},
		{
			"bufferView":17,
			"componentType":5126,
			"count":4,
			"max":[
				1.4991830587387085,
				7.185621342387094e-08,
				2.1190223693847656
			],
			"min":[
				-1.9860286712646484,
				-5.256014823913574,
				-0.08464785665273666
			],
			"type":"VEC3"
		},
		{
			"bufferView":18,
			"componentType":5126,
			"count":4,
			"type":"VEC2"
		},
		{
			"bufferView":19,
			"componentType":5126,
			"count":4,
			"type":"VEC3"
		},
		{
			"bufferView":20,
			"componentType":5126,
			"count":4,
			"type":"VEC4"
		},
		{
			"bufferView":21,
			"componentType":5126,
			"count":4,
			"max":[
				1.4991830587387085,
				7.185621342387094e-08,
				2.1190223693847656
			],
			"min":[
				-1.9860286712646484,
				-5.256014823913574,
				-0.08464785665273666
			],
			"type":"VEC3"
		},
		{
			"bufferView":22,
			"componentType":5126,
			"count":4,
			"type":"VEC2"
		},
		{
			"bufferView":23,
			"componentType":5126,
			"count":4,
			"type":"VEC3"
		},
		{
			"bufferView":24,
			"componentType":5126,
			"count":4,
			"type":"VEC4"
		},
		{
			"bufferView":25,
			"componentType":5126,
			"count":4,
			"max":[
				1.4991830587387085,
				7.185621342387094e-08,
				2.1190223693847656
			],
			"min":[
				-1.9860286712646484,
				-5.256014823913574,
				-0.08464785665273666
			],
			"type":"VEC3"
		},
		{
			"bufferView":26,
			"componentType":5126,
			"count":4,
			"type":"VEC2"
		},
		{
			"bufferView":27,
			"componentType":5126,
			"count":4,
			"type":"VEC3"
		},
		{
			"bufferView":28,
			"componentType":5126,
			"count":4,
			"type":"VEC4"
		},
		{
			"bufferView":29,
			"componentType":5126,
			"count":4,
			"max":[
				1.4991830587387085,
				7.185621342387094e-08,
				2.1190223693847656
			],
			"min":[
				-1.9860286712646484,
				-5.256014823913574,
				-0.08464785665273666
			],
			"type":"VEC3"
		},
		{
			"bufferView":30,
			"componentType":5126,
			"count":4,
			"type":"VEC2"
		},
		{
			"bufferView":31,
			"componentType":5126,
			"count":4,
			"type":"VEC3"
		},
		{
			"bufferView":32,
			"componentType":5126,
			"count":4,
			"type":"VEC4"
		}
	],
	"bufferViews":[
		{
			"buffer":0,
			"byteLength":48,
			"byteOffset":0,
			"target":34962
		},
		{
			"buffer":0,
			"byteLength":32,
			"byteOffset":48,
			"target":34962
		},
		{
			"buffer":0,
			"byteLength":48,
			"byteOffset":80,
			"target":34962
		},
		{
			"buffer":0,
			"byteLength":64,
			"byteOffset":128,
			"target":34962
		},
		{
			"buffer":0,
			"byteLength":12,
			"byteOffset":192,
			"target":34963
		},
		{
			"buffer":0,
			"byteLength":48,
			"byteOffset":204,
			"target":34962
		},
		{
			"buffer":0,
			"byteLength":32,
			"byteOffset":252,
			"target":34962
		},
		{
			"buffer":0,
			"byteLength":48,
			"byteOffset":284,
			"target":34962
		},
		{
			"buffer":0,
			"byteLength":64,
			"byteOffset":332,
			"target":34962
		},
		{
			"buffer":0,
			"byteLength":48,
			"byteOffset":396,
			"target":34962
		},
		{
			"buffer":0,
			"byteLength":32,
			"byteOffset":444,
			"target":34962
		},
		{
			"buffer":0,
			"byteLength":48,
			"byteOffset":476,
			"target":34962
		},
		{
			"buffer":0,
			"byteLength":64,
			"byteOffset":524,
			"target":34962
		},
		{
			"buffer":0,
			"byteLength":48,
			"byteOffset":588,
			"target":34962
		},
		{
			"buffer":0,
			"byteLength":32,
			"byteOffset":636,
			"target":34962
		},
		{
			"buffer":0,
			"byteLength":48,
			"byteOffset":668,
			"target":34962
		},
		{
			"buffer":0,
			"byteLength":64,
			"byteOffset":716,
			"target":34962
		},
		{
			"buffer":0,
			"byteLength":48,
			"byteOffset":780,
			"target":34962
		},
		{
			"buffer":0,
			"byteLength":32,
			"byteOffset":828,
			"target":34962
		},
		{
			"buffer":0,
			"byteLength":48,
			"byteOffset":860,
			"target":34962
		},
		{
			"buffer":0,
			"byteLength":64,
			"byteOffset":908,
			"target":34962
		},
		{
			"buffer":0,
			"byteLength":48,
			"byteOffset":972,
			"target":34962
		},
		{
			"buffer":0,
			"byteLength":32,
			"byteOffset":1020,
			"target":34962
		},
		{
			"buffer":0,
			"byteLength":48,
			"byteOffset":1052,
			"target":34962
		},
		{
			"buffer":0,
			"byteLength":64,
			"byteOffset":1100,
			"target":34962
		},
		{
			"buffer":0,
			"byteLength":48,
			"byteOffset":1164,
			"target":34962
		},
		{
			"buffer":0,
			"byteLength":32,
			"byteOffset":1212,
			"target":34962
		},
		{
			"buffer":0,
			"byteLength":48,
			"byteOffset":1244,
			"target":34962
		},
		{
			"buffer":0,
			"byteLength":64,
			"byteOffset":1292,
			"target":34962
		},
		{
			"buffer":0,
			"byteLength":48,
			"byteOffset":1356,
			"target":34962
		},
		{
			"buffer":0,
			"byteLength":32,
			"byteOffset":1404,
			"target":34962
		},
		{
			"buffer":0,
			"byteLength":48,
			"byteOffset":1436,
			"target":34962
		},
		{
			"buffer":0,
			"byteLength":64,
			"byteOffset":1484,
			"target":34962
		}
	],
	"buffers":[
		{
			"byteLength":1548,
			"uri":"shower_dust.bin"
		}
	]
}
