{
	"asset":{
		"generator":"Khronos glTF Blender I/O v3.5.30",
		"version":"2.0"
	},
	"extensionsUsed":[
		"KHR_materials_emissive_strength"
	],
	"scene":0,
	"scenes":[
		{
			"name":"Scene",
			"nodes":[
				0
			]
		}
	],
	"nodes":[
		{
			"mesh":0,
			"name":"Cube",
			"scale":[
				4.528345108032227,
				4.528345108032227,
				4.528345108032227
			]
		}
	],
	"materials":[
		{
			"emissiveFactor":[
				0.4569312036037445,
				0,
				1
			],
			"extensions":{
				"KHR_materials_emissive_strength":{
					"emissiveStrength":30
				}
			},
			"name":"Material.002",
			"pbrMetallicRoughness":{
				"baseColorFactor":[
					0,
					0,
					0,
					1
				]
			}
		}
	],
	"meshes":[
		{
			"name":"Cube.001",
			"primitives":[
				{
					"attributes":{
						"POSITION":0,
						"TEXCOORD_0":1,
						"NORMAL":2,
						"TANGENT":3
					},
					"indices":4,
					"material":0
				}
			]
		}
	],
	"accessors":[
		{
			"bufferView":0,
			"componentType":5126,
			"count":49,
			"max":[
				0.0034400655422359705,
				0.0035710460506379604,
				-0.0005297362804412842
			],
			"min":[
				-0.0034400655422359705,
				-0.0035710460506379604,
				-0.516688346862793
			],
			"type":"VEC3"
		},
		{
			"bufferView":1,
			"componentType":5126,
			"count":49,
			"type":"VEC2"
		},
		{
			"bufferView":2,
			"componentType":5126,
			"count":49,
			"type":"VEC3"
		},
		{
			"bufferView":3,
			"componentType":5126,
			"count":49,
			"type":"VEC4"
		},
		{
			"bufferView":4,
			"componentType":5123,
			"count":192,
			"type":"SCALAR"
		}
	],
	"bufferViews":[
		{
			"buffer":0,
			"byteLength":588,
			"byteOffset":0,
			"target":34962
		},
		{
			"buffer":0,
			"byteLength":392,
			"byteOffset":588,
			"target":34962
		},
		{
			"buffer":0,
			"byteLength":588,
			"byteOffset":980,
			"target":34962
		},
		{
			"buffer":0,
			"byteLength":784,
			"byteOffset":1568,
			"target":34962
		},
		{
			"buffer":0,
			"byteLength":384,
			"byteOffset":2352,
			"target":34963
		}
	],
	"buffers":[
		{
			"byteLength":2736,
			"uri":"projectile.bin"
		}
	]
}
