{
	"asset":{
		"generator":"Khronos glTF Blender I/O v3.5.30",
		"version":"2.0"
	},
	"scene":0,
	"scenes":[
		{
			"extras":{
				"automirror":{
					"axis":1
				}
			},
			"name":"Scene",
			"nodes":[
				0
			]
		}
	],
	"nodes":[
		{
			"extras":{
				"ant_landscape":{}
			},
			"mesh":0,
			"name":"Security Bypass Button Locked",
			"rotation":[
				0,
				-0.4613226354122162,
				0,
				0.8872324824333191
			],
			"translation":[
				3.063331127166748,
				1.0047093629837036,
				15.941177368164062
			]
		}
	],
	"materials":[
		{
			"doubleSided":true,
			"emissiveFactor":[
				1,
				1,
				1
			],
			"emissiveTexture":{
				"index":0
			},
			"name":"Material.001",
			"pbrMetallicRoughness":{
				"baseColorFactor":[
					0,
					0,
					0,
					1
				]
			}
		}
	],
	"meshes":[
		{
			"name":"Cube.012",
			"primitives":[
				{
					"attributes":{
						"COLOR_0":0,
						"POSITION":1,
						"TEXCOORD_0":2,
						"NORMAL":3
					},
					"indices":4,
					"material":0
				}
			]
		}
	],
	"textures":[
		{
			"sampler":0,
			"source":0
		}
	],
	"images":[
		{
			
			"name":"expcontrolroom_props_lightmap",
			"uri":"expcontrolroom_props_lightmap.ktx2"
		}
	],
	"accessors":[
		{
			"bufferView":0,
			"componentType":5123,
			"count":94434,
			"normalized":true,
			"type":"VEC4"
		},
		{
			"bufferView":1,
			"componentType":5126,
			"count":94434,
			"max":[
				11.64392375946045,
				8.295653343200684,
				15.383864402770996
			],
			"min":[
				-29.86056137084961,
				-10.200615882873535,
				-17.714313507080078
			],
			"type":"VEC3"
		},
		{
			"bufferView":2,
			"componentType":5126,
			"count":94434,
			"type":"VEC2"
		},
		{
			"bufferView":3,
			"componentType":5126,
			"count":94434,
			"type":"VEC3"
		},
		{
			"bufferView":4,
			"componentType":5125,
			"count":192282,
			"type":"SCALAR"
		}
	],
	"bufferViews":[
		{
			"buffer":0,
			"byteLength":755472,
			"byteOffset":0,
			"target":34962
		},
		{
			"buffer":0,
			"byteLength":1133208,
			"byteOffset":755472,
			"target":34962
		},
		{
			"buffer":0,
			"byteLength":755472,
			"byteOffset":1888680,
			"target":34962
		},
		{
			"buffer":0,
			"byteLength":1133208,
			"byteOffset":2644152,
			"target":34962
		},
		{
			"buffer":0,
			"byteLength":769128,
			"byteOffset":3777360,
			"target":34963
		}
	],
	"samplers":[
		{
			"magFilter":9729,
			"minFilter":9987
		}
	],
	"buffers":[
		{
			"byteLength":4546488,
			"uri":"expcontrolroom_props.bin"
		}
	]
}
