{
	"asset":{
		"generator":"Khronos glTF Blender I/O v3.5.30",
		"version":"2.0"
	},
	"scene":0,
	"scenes":[
		{
			"extras":{
				"automirror":{
					"axis":1
				}
			},
			"name":"Scene",
			"nodes":[
				0
			]
		}
	],
	"nodes":[
		{
			"mesh":0,
			"name":"Cube.096",
			"rotation":[
				0,
				0.995856761932373,
				0,
				0.09093587845563889
			],
			"translation":[
				-3.437166213989258,
				0.9879661202430725,
				17.474016189575195
			]
		}
	],
	"materials":[
		{
			"doubleSided":true,
			"emissiveFactor":[
				1,
				1,
				1
			],
			"emissiveTexture":{
				"index":0
			},
			"name":"Material.003",
			"pbrMetallicRoughness":{
				"baseColorFactor":[
					0,
					0,
					0,
					1
				]
			}
		}
	],
	"meshes":[
		{
			"name":"Cube.034",
			"primitives":[
				{
					"attributes":{
						"COLOR_0":0,
						"POSITION":1,
						"TEXCOORD_0":2,
						"NORMAL":3
					},
					"indices":4,
					"material":0
				}
			]
		}
	],
	"textures":[
		{
			"sampler":0,
			"source":0
		}
	],
	"images":[
		{
			
			"name":"expcontrolroom_counter_lightmap",
			"uri":"expcontrolroom_counter_lightmap.ktx2"
		}
	],
	"accessors":[
		{
			"bufferView":0,
			"componentType":5123,
			"count":24256,
			"normalized":true,
			"type":"VEC4"
		},
		{
			"bufferView":1,
			"componentType":5126,
			"count":24256,
			"max":[
				0.16108441352844238,
				0.2964217960834503,
				3.8527722358703613
			],
			"min":[
				-7.313116550445557,
				-0.9879658222198486,
				-0.6511596441268921
			],
			"type":"VEC3"
		},
		{
			"bufferView":2,
			"componentType":5126,
			"count":24256,
			"type":"VEC2"
		},
		{
			"bufferView":3,
			"componentType":5126,
			"count":24256,
			"type":"VEC3"
		},
		{
			"bufferView":4,
			"componentType":5123,
			"count":46668,
			"type":"SCALAR"
		}
	],
	"bufferViews":[
		{
			"buffer":0,
			"byteLength":194048,
			"byteOffset":0,
			"target":34962
		},
		{
			"buffer":0,
			"byteLength":291072,
			"byteOffset":194048,
			"target":34962
		},
		{
			"buffer":0,
			"byteLength":194048,
			"byteOffset":485120,
			"target":34962
		},
		{
			"buffer":0,
			"byteLength":291072,
			"byteOffset":679168,
			"target":34962
		},
		{
			"buffer":0,
			"byteLength":93336,
			"byteOffset":970240,
			"target":34963
		}
	],
	"samplers":[
		{
			"magFilter":9729,
			"minFilter":9987
		}
	],
	"buffers":[
		{
			"byteLength":1063576,
			"uri":"expcontrolroom_counter.bin"
		}
	]
}
