{
	"asset":{
		"generator":"Khronos glTF Blender I/O v3.5.30",
		"version":"2.0"
	},
	"scene":0,
	"scenes":[
		{
			"extras":{
				"automirror":{
					"axis":2
				}
			},
			"name":"Scene",
			"nodes":[
				0,
				1,
				2,
				3,
				4,
				5
			]
		}
	],
	"nodes":[
		{
			"mesh":0,
			"name":"LightShaft",
			"rotation":[
				0,
				0.9725744128227234,
				-0.23259243369102478,
				3.8876180497027235e-07
			],
			"scale":[
				2.337805986404419,
				1,
				1.4104540348052979
			],
			"translation":[
				-0.6040694713592529,
				2.236948251724243,
				0.9956089854240417
			]
		},
		{
			"mesh":1,
			"name":"LightShaft.001",
			"rotation":[
				0,
				0.987155020236969,
				-0.15976545214653015,
				4.774686885866686e-07
			],
			"scale":[
				2.337805986404419,
				1,
				1.4104539155960083
			],
			"translation":[
				-0.6034793853759766,
				2.236948251724243,
				0.9984264969825745
			]
		},
		{
			"mesh":2,
			"name":"LightShaft.002",
			"rotation":[
				0,
				0.9975059032440186,
				-0.07058325409889221,
				4.4823798361903755e-07
			],
			"scale":[
				2.337805986404419,
				1,
				1.4104540348052979
			],
			"translation":[
				-0.6126680970191956,
				2.268728256225586,
				1.0061496496200562
			]
		},
		{
			"mesh":3,
			"name":"LightShaft.003",
			"rotation":[
				0.6815418601036072,
				0.7041364312171936,
				-0.0871998742222786,
				0.17913348972797394
			],
			"scale":[
				2.337805986404419,
				1,
				1.4104540348052979
			],
			"translation":[
				-0.1308908760547638,
				2.1112241744995117,
				0.9354478120803833
			]
		},
		{
			"mesh":4,
			"name":"LightShaft.004",
			"rotation":[
				0.6815418601036072,
				0.7041364312171936,
				-0.0871998742222786,
				0.17913348972797394
			],
			"scale":[
				2.337805986404419,
				1,
				1.4104540348052979
			],
			"translation":[
				-0.5826523900032043,
				2.1112241744995117,
				0.942349910736084
			]
		},
		{
			"mesh":5,
			"name":"LightShaft.005",
			"rotation":[
				0.6815418601036072,
				0.7041364312171936,
				-0.0871998742222786,
				0.17913348972797394
			],
			"scale":[
				2.337805986404419,
				1,
				1.4104540348052979
			],
			"translation":[
				-1.0170124769210815,
				2.1112241744995117,
				0.9336717128753662
			]
		}
	],
	"materials":[
		{
			"alphaMode":"BLEND",
			"doubleSided":true,
			"emissiveFactor":[
				1,
				1,
				1
			],
			"name":"Material.001",
			"pbrMetallicRoughness":{
				"baseColorFactor":[
					0.800000011920929,
					0.800000011920929,
					0.800000011920929,
					1
				],
				"metallicFactor":0,
				"roughnessFactor":0.5
			}
		}
	],
	"meshes":[
		{
			"name":"Plane.059",
			"primitives":[
				{
					"attributes":{
						"POSITION":0,
						"TEXCOORD_0":1,
						"NORMAL":2,
						"TANGENT":3
					},
					"indices":4,
					"material":0
				}
			]
		},
		{
			"name":"Plane.058",
			"primitives":[
				{
					"attributes":{
						"POSITION":5,
						"TEXCOORD_0":6,
						"NORMAL":7,
						"TANGENT":8
					},
					"indices":4,
					"material":0
				}
			]
		},
		{
			"name":"Plane.055",
			"primitives":[
				{
					"attributes":{
						"POSITION":9,
						"TEXCOORD_0":10,
						"NORMAL":11,
						"TANGENT":12
					},
					"indices":4,
					"material":0
				}
			]
		},
		{
			"name":"Plane.050",
			"primitives":[
				{
					"attributes":{
						"POSITION":13,
						"TEXCOORD_0":14,
						"NORMAL":15,
						"TANGENT":16
					},
					"indices":4,
					"material":0
				}
			]
		},
		{
			"name":"Plane.045",
			"primitives":[
				{
					"attributes":{
						"POSITION":17,
						"TEXCOORD_0":18,
						"NORMAL":19,
						"TANGENT":20
					},
					"indices":4,
					"material":0
				}
			]
		},
		{
			"name":"Plane.023",
			"primitives":[
				{
					"attributes":{
						"POSITION":21,
						"TEXCOORD_0":22,
						"NORMAL":23,
						"TANGENT":24
					},
					"indices":4,
					"material":0
				}
			]
		}
	],
	"accessors":[
		{
			"bufferView":0,
			"componentType":5126,
			"count":4,
			"max":[
				0.34631747007369995,
				2.9802322387695312e-08,
				1.594205617904663
			],
			"min":[
				-0.3463171720504761,
				-0.33788537979125977,
				-0.029993832111358643
			],
			"type":"VEC3"
		},
		{
			"bufferView":1,
			"componentType":5126,
			"count":4,
			"type":"VEC2"
		},
		{
			"bufferView":2,
			"componentType":5126,
			"count":4,
			"type":"VEC3"
		},
		{
			"bufferView":3,
			"componentType":5126,
			"count":4,
			"type":"VEC4"
		},
		{
			"bufferView":4,
			"componentType":5123,
			"count":6,
			"type":"SCALAR"
		},
		{
			"bufferView":5,
			"componentType":5126,
			"count":4,
			"max":[
				0.34631747007369995,
				2.9802322387695312e-08,
				1.594205617904663
			],
			"min":[
				-0.3463171720504761,
				-0.33788537979125977,
				-0.029993832111358643
			],
			"type":"VEC3"
		},
		{
			"bufferView":6,
			"componentType":5126,
			"count":4,
			"type":"VEC2"
		},
		{
			"bufferView":7,
			"componentType":5126,
			"count":4,
			"type":"VEC3"
		},
		{
			"bufferView":8,
			"componentType":5126,
			"count":4,
			"type":"VEC4"
		},
		{
			"bufferView":9,
			"componentType":5126,
			"count":4,
			"max":[
				0.34631747007369995,
				2.9802322387695312e-08,
				1.594205617904663
			],
			"min":[
				-0.3463171720504761,
				-0.33788537979125977,
				-0.029993832111358643
			],
			"type":"VEC3"
		},
		{
			"bufferView":10,
			"componentType":5126,
			"count":4,
			"type":"VEC2"
		},
		{
			"bufferView":11,
			"componentType":5126,
			"count":4,
			"type":"VEC3"
		},
		{
			"bufferView":12,
			"componentType":5126,
			"count":4,
			"type":"VEC4"
		},
		{
			"bufferView":13,
			"componentType":5126,
			"count":4,
			"max":[
				0.34631747007369995,
				2.9802322387695312e-08,
				1.594205617904663
			],
			"min":[
				-0.3463171720504761,
				-0.33788537979125977,
				-0.029993832111358643
			],
			"type":"VEC3"
		},
		{
			"bufferView":14,
			"componentType":5126,
			"count":4,
			"type":"VEC2"
		},
		{
			"bufferView":15,
			"componentType":5126,
			"count":4,
			"type":"VEC3"
		},
		{
			"bufferView":16,
			"componentType":5126,
			"count":4,
			"type":"VEC4"
		},
		{
			"bufferView":17,
			"componentType":5126,
			"count":4,
			"max":[
				0.34631747007369995,
				2.9802322387695312e-08,
				1.594205617904663
			],
			"min":[
				-0.3463171720504761,
				-0.33788537979125977,
				-0.029993832111358643
			],
			"type":"VEC3"
		},
		{
			"bufferView":18,
			"componentType":5126,
			"count":4,
			"type":"VEC2"
		},
		{
			"bufferView":19,
			"componentType":5126,
			"count":4,
			"type":"VEC3"
		},
		{
			"bufferView":20,
			"componentType":5126,
			"count":4,
			"type":"VEC4"
		},
		{
			"bufferView":21,
			"componentType":5126,
			"count":4,
			"max":[
				0.34631747007369995,
				2.9802322387695312e-08,
				1.594205617904663
			],
			"min":[
				-0.3463171720504761,
				-0.33788537979125977,
				-0.029993832111358643
			],
			"type":"VEC3"
		},
		{
			"bufferView":22,
			"componentType":5126,
			"count":4,
			"type":"VEC2"
		},
		{
			"bufferView":23,
			"componentType":5126,
			"count":4,
			"type":"VEC3"
		},
		{
			"bufferView":24,
			"componentType":5126,
			"count":4,
			"type":"VEC4"
		}
	],
	"bufferViews":[
		{
			"buffer":0,
			"byteLength":48,
			"byteOffset":0,
			"target":34962
		},
		{
			"buffer":0,
			"byteLength":32,
			"byteOffset":48,
			"target":34962
		},
		{
			"buffer":0,
			"byteLength":48,
			"byteOffset":80,
			"target":34962
		},
		{
			"buffer":0,
			"byteLength":64,
			"byteOffset":128,
			"target":34962
		},
		{
			"buffer":0,
			"byteLength":12,
			"byteOffset":192,
			"target":34963
		},
		{
			"buffer":0,
			"byteLength":48,
			"byteOffset":204,
			"target":34962
		},
		{
			"buffer":0,
			"byteLength":32,
			"byteOffset":252,
			"target":34962
		},
		{
			"buffer":0,
			"byteLength":48,
			"byteOffset":284,
			"target":34962
		},
		{
			"buffer":0,
			"byteLength":64,
			"byteOffset":332,
			"target":34962
		},
		{
			"buffer":0,
			"byteLength":48,
			"byteOffset":396,
			"target":34962
		},
		{
			"buffer":0,
			"byteLength":32,
			"byteOffset":444,
			"target":34962
		},
		{
			"buffer":0,
			"byteLength":48,
			"byteOffset":476,
			"target":34962
		},
		{
			"buffer":0,
			"byteLength":64,
			"byteOffset":524,
			"target":34962
		},
		{
			"buffer":0,
			"byteLength":48,
			"byteOffset":588,
			"target":34962
		},
		{
			"buffer":0,
			"byteLength":32,
			"byteOffset":636,
			"target":34962
		},
		{
			"buffer":0,
			"byteLength":48,
			"byteOffset":668,
			"target":34962
		},
		{
			"buffer":0,
			"byteLength":64,
			"byteOffset":716,
			"target":34962
		},
		{
			"buffer":0,
			"byteLength":48,
			"byteOffset":780,
			"target":34962
		},
		{
			"buffer":0,
			"byteLength":32,
			"byteOffset":828,
			"target":34962
		},
		{
			"buffer":0,
			"byteLength":48,
			"byteOffset":860,
			"target":34962
		},
		{
			"buffer":0,
			"byteLength":64,
			"byteOffset":908,
			"target":34962
		},
		{
			"buffer":0,
			"byteLength":48,
			"byteOffset":972,
			"target":34962
		},
		{
			"buffer":0,
			"byteLength":32,
			"byteOffset":1020,
			"target":34962
		},
		{
			"buffer":0,
			"byteLength":48,
			"byteOffset":1052,
			"target":34962
		},
		{
			"buffer":0,
			"byteLength":64,
			"byteOffset":1100,
			"target":34962
		}
	],
	"buffers":[
		{
			"byteLength":1164,
			"uri":"bathroom_dust.bin"
		}
	]
}
