{
	"asset":{
		"generator":"Khronos glTF Blender I/O v3.5.30",
		"version":"2.0"
	},
	"scene":0,
	"scenes":[
		{
			"extras":{
				"automirror":{
					"axis":2
				}
			},
			"name":"Scene",
			"nodes":[
				0
			]
		}
	],
	"nodes":[
		{
			"mesh":0,
			"name":"Plane.040",
			"rotation":[
				-0.7071068286895752,
				0,
				0,
				0.7071068286895752
			],
			"translation":[
				-0.5706868171691895,
				2.1664061546325684,
				0.8430535197257996
			]
		}
	],
	"materials":[
		{
			"doubleSided":true,
			"emissiveFactor":[
				1,
				1,
				1
			],
			"emissiveTexture":{
				"index":0
			},
			"name":"Material.008",
			"pbrMetallicRoughness":{
				"baseColorFactor":[
					0,
					0,
					0,
					1
				]
			}
		}
	],
	"meshes":[
		{
			"name":"Plane.051",
			"primitives":[
				{
					"attributes":{
						"COLOR_0":0,
						"POSITION":1,
						"TEXCOORD_0":2,
						"NORMAL":3
					},
					"indices":4,
					"material":0
				}
			]
		}
	],
	"textures":[
		{
			"sampler":0,
			"source":0
		}
	],
	"images":[
		{
			
			"name":"expbathroom_props_lightmap",
			"uri":"expbathroom_props_lightmap.ktx2"
		}
	],
	"accessors":[
		{
			"bufferView":0,
			"componentType":5123,
			"count":140164,
			"normalized":true,
			"type":"VEC4"
		},
		{
			"bufferView":1,
			"componentType":5126,
			"count":140164,
			"max":[
				1.1116487979888916,
				3.23490047454834,
				0.07508175075054169
			],
			"min":[
				-0.9779980778694153,
				-0.07443979382514954,
				-2.1664061546325684
			],
			"type":"VEC3"
		},
		{
			"bufferView":2,
			"componentType":5126,
			"count":140164,
			"type":"VEC2"
		},
		{
			"bufferView":3,
			"componentType":5126,
			"count":140164,
			"type":"VEC3"
		},
		{
			"bufferView":4,
			"componentType":5125,
			"count":196974,
			"type":"SCALAR"
		}
	],
	"bufferViews":[
		{
			"buffer":0,
			"byteLength":1121312,
			"byteOffset":0,
			"target":34962
		},
		{
			"buffer":0,
			"byteLength":1681968,
			"byteOffset":1121312,
			"target":34962
		},
		{
			"buffer":0,
			"byteLength":1121312,
			"byteOffset":2803280,
			"target":34962
		},
		{
			"buffer":0,
			"byteLength":1681968,
			"byteOffset":3924592,
			"target":34962
		},
		{
			"buffer":0,
			"byteLength":787896,
			"byteOffset":5606560,
			"target":34963
		}
	],
	"samplers":[
		{
			"magFilter":9729,
			"minFilter":9987
		}
	],
	"buffers":[
		{
			"byteLength":6394456,
			"uri":"expbathroom_props.bin"
		}
	]
}
