{
	"asset":{
		"generator":"Khronos glTF Blender I/O v3.5.30",
		"version":"2.0"
	},
	"scene":0,
	"scenes":[
		{
			"extras":{
				"automirror":{
					"axis":2
				}
			},
			"name":"Scene",
			"nodes":[
				0
			]
		}
	],
	"nodes":[
		{
			"mesh":0,
			"name":"Ceiling",
			"translation":[
				1.2647886276245117,
				0,
				-0.776983380317688
			]
		}
	],
	"materials":[
		{
			"doubleSided":true,
			"emissiveFactor":[
				1,
				1,
				1
			],
			"emissiveTexture":{
				"index":0
			},
			"name":"Material.007",
			"pbrMetallicRoughness":{
				"baseColorFactor":[
					0,
					0,
					0,
					1
				]
			}
		}
	],
	"meshes":[
		{
			"name":"Cube.002",
			"primitives":[
				{
					"attributes":{
						"COLOR_0":0,
						"POSITION":1,
						"TEXCOORD_0":2,
						"NORMAL":3
					},
					"indices":4,
					"material":0
				}
			]
		}
	],
	"textures":[
		{
			"sampler":0,
			"source":0
		}
	],
	"images":[
		{
			
			"name":"expbathroom_structure_lightmap",
			"uri":"expbathroom_structure_lightmap.ktx2"
		}
	],
	"accessors":[
		{
			"bufferView":0,
			"componentType":5123,
			"count":6466,
			"normalized":true,
			"type":"VEC4"
		},
		{
			"bufferView":1,
			"componentType":5126,
			"count":6466,
			"max":[
				2.75998592376709,
				2.6104228496551514,
				1.867573857307434
			],
			"min":[
				-3.1315882205963135,
				-5.960464477539062e-07,
				-1.8011482954025269
			],
			"type":"VEC3"
		},
		{
			"bufferView":2,
			"componentType":5126,
			"count":6466,
			"type":"VEC2"
		},
		{
			"bufferView":3,
			"componentType":5126,
			"count":6466,
			"type":"VEC3"
		},
		{
			"bufferView":4,
			"componentType":5123,
			"count":17748,
			"type":"SCALAR"
		}
	],
	"bufferViews":[
		{
			"buffer":0,
			"byteLength":51728,
			"byteOffset":0,
			"target":34962
		},
		{
			"buffer":0,
			"byteLength":77592,
			"byteOffset":51728,
			"target":34962
		},
		{
			"buffer":0,
			"byteLength":51728,
			"byteOffset":129320,
			"target":34962
		},
		{
			"buffer":0,
			"byteLength":77592,
			"byteOffset":181048,
			"target":34962
		},
		{
			"buffer":0,
			"byteLength":35496,
			"byteOffset":258640,
			"target":34963
		}
	],
	"samplers":[
		{
			"magFilter":9729,
			"minFilter":9987
		}
	],
	"buffers":[
		{
			"byteLength":294136,
			"uri":"expbathroom_structure.bin"
		}
	]
}
