{
	"asset":{
		"generator":"Khronos glTF Blender I/O v3.5.30",
		"version":"2.0"
	},
	"scene":0,
	"scenes":[
		{
			"extras":{
				"automirror":{
					"axis":2
				}
			},
			"name":"Scene",
			"nodes":[
				0
			]
		}
	],
	"nodes":[
		{
			"mesh":0,
			"name":"Cube.019",
			"translation":[
				0.3015785217285156,
				0.8604022860527039,
				0.41087767481803894
			]
		}
	],
	"materials":[
		{
			"doubleSided":true,
			"emissiveFactor":[
				1,
				1,
				1
			],
			"emissiveTexture":{
				"index":0
			},
			"name":"Material",
			"pbrMetallicRoughness":{
				"baseColorFactor":[
					0,
					0,
					0,
					1
				]
			}
		}
	],
	"meshes":[
		{
			"name":"Cube.030",
			"primitives":[
				{
					"attributes":{
						"COLOR_0":0,
						"POSITION":1,
						"TEXCOORD_0":2,
						"NORMAL":3
					},
					"indices":4,
					"material":0
				}
			]
		}
	],
	"textures":[
		{
			"sampler":0,
			"source":0
		}
	],
	"images":[
		{
			
			"name":"expbathroom_clockcoords_lightmap",
			"uri":"expbathroom_clockcoords_lightmap.ktx2"
		}
	],
	"accessors":[
		{
			"bufferView":0,
			"componentType":5123,
			"count":6233,
			"normalized":true,
			"type":"VEC4"
		},
		{
			"bufferView":1,
			"componentType":5126,
			"count":6233,
			"max":[
				0.11491775512695312,
				0.1685768961906433,
				0.06843006610870361
			],
			"min":[
				-0.5226371884346008,
				-0.8607461452484131,
				-2.78424334526062
			],
			"type":"VEC3"
		},
		{
			"bufferView":2,
			"componentType":5126,
			"count":6233,
			"type":"VEC2"
		},
		{
			"bufferView":3,
			"componentType":5126,
			"count":6233,
			"type":"VEC3"
		},
		{
			"bufferView":4,
			"componentType":5123,
			"count":14436,
			"type":"SCALAR"
		}
	],
	"bufferViews":[
		{
			"buffer":0,
			"byteLength":49864,
			"byteOffset":0,
			"target":34962
		},
		{
			"buffer":0,
			"byteLength":74796,
			"byteOffset":49864,
			"target":34962
		},
		{
			"buffer":0,
			"byteLength":49864,
			"byteOffset":124660,
			"target":34962
		},
		{
			"buffer":0,
			"byteLength":74796,
			"byteOffset":174524,
			"target":34962
		},
		{
			"buffer":0,
			"byteLength":28872,
			"byteOffset":249320,
			"target":34963
		}
	],
	"samplers":[
		{
			"magFilter":9729,
			"minFilter":9987
		}
	],
	"buffers":[
		{
			"byteLength":278192,
			"uri":"expbathroom_clockcoords.bin"
		}
	]
}
