{
	"asset":{
		"generator":"Khronos glTF Blender I/O v3.5.30",
		"version":"2.0"
	},
	"scene":0,
	"scenes":[
		{
			"extras":{
				"automirror":{
					"apply_mirror":0
				}
			},
			"name":"Scene",
			"nodes":[
				0,
				1,
				2,
				3,
				4
			]
		}
	],
	"nodes":[
		{
			"mesh":0,
			"name":"Plane.060",
			"rotation":[
				-0.5,
				0.5,
				-0.5,
				0.5000000596046448
			],
			"translation":[
				-5.307549476623535,
				5.300333499908447,
				-52.07337188720703
			]
		},
		{
			"name":"Area.004",
			"rotation":[
				0.6363620758056641,
				0.20116692781448364,
				-0.1926918923854828,
				0.7193365693092346
			],
			"translation":[
				7.280892372131348,
				-1.3814884424209595,
				-74.59345245361328
			]
		},
		{
			"name":"Area.005",
			"rotation":[
				0.6613187789916992,
				-0.09515388309955597,
				0.07302577048540115,
				0.7404528856277466
			],
			"translation":[
				-3.1965651512145996,
				1.3438297510147095,
				-81.09062194824219
			]
		},
		{
			"name":"Area.006",
			"rotation":[
				0.6515316963195801,
				0.16491349041461945,
				-0.16712145507335663,
				0.721373975276947
			],
			"translation":[
				-6.606343746185303,
				-6.31721305847168,
				-88.3658676147461
			]
		},
		{
			"name":"Area.007",
			"rotation":[
				0.6515316963195801,
				0.16491349041461945,
				-0.16712145507335663,
				0.721373975276947
			],
			"translation":[
				-20.294795989990234,
				12.508583068847656,
				-120.1651382446289
			]
		}
	],
	"materials":[
		{
			"doubleSided":true,
			"emissiveFactor":[
				1,
				1,
				1
			],
			"emissiveTexture":{
				"index":0
			},
			"name":"Material.007",
			"pbrMetallicRoughness":{
				"baseColorFactor":[
					0,
					0,
					0,
					1
				]
			}
		}
	],
	"meshes":[
		{
			"name":"Plane.049",
			"primitives":[
				{
					"attributes":{
						"COLOR_0":0,
						"POSITION":1,
						"TEXCOORD_0":2,
						"NORMAL":3
					},
					"indices":4,
					"material":0
				}
			]
		}
	],
	"textures":[
		{
			"sampler":0,
			"source":0
		}
	],
	"images":[
		{
			
			"name":"ExpUrban",
			"uri":"ExpUrban.blend_FarAwayBuildings_lightmap.ktx2"
		}
	],
	"accessors":[
		{
			"bufferView":0,
			"componentType":5123,
			"count":128,
			"normalized":true,
			"type":"VEC4"
		},
		{
			"bufferView":1,
			"componentType":5126,
			"count":128,
			"max":[
				14.77196979522705,
				89.02700805664062,
				11.136340141296387
			],
			"min":[
				-38.13578796386719,
				0,
				-16.36123275756836
			],
			"type":"VEC3"
		},
		{
			"bufferView":2,
			"componentType":5126,
			"count":128,
			"type":"VEC2"
		},
		{
			"bufferView":3,
			"componentType":5126,
			"count":128,
			"type":"VEC3"
		},
		{
			"bufferView":4,
			"componentType":5123,
			"count":192,
			"type":"SCALAR"
		}
	],
	"bufferViews":[
		{
			"buffer":0,
			"byteLength":1024,
			"byteOffset":0,
			"target":34962
		},
		{
			"buffer":0,
			"byteLength":1536,
			"byteOffset":1024,
			"target":34962
		},
		{
			"buffer":0,
			"byteLength":1024,
			"byteOffset":2560,
			"target":34962
		},
		{
			"buffer":0,
			"byteLength":1536,
			"byteOffset":3584,
			"target":34962
		},
		{
			"buffer":0,
			"byteLength":384,
			"byteOffset":5120,
			"target":34963
		}
	],
	"samplers":[
		{
			"magFilter":9729,
			"minFilter":9987
		}
	],
	"buffers":[
		{
			"byteLength":5504,
			"uri":"ExpUrban.blend_FarAwayBuildings.bin"
		}
	]
}
