{
	"asset":{
		"generator":"Khronos glTF Blender I/O v3.5.30",
		"version":"2.0"
	},
	"scene":0,
	"scenes":[
		{
			"extras":{
				"automirror":{
					"apply_mirror":0
				}
			},
			"name":"Scene",
			"nodes":[
				0
			]
		}
	],
	"nodes":[
		{
			"mesh":0,
			"name":"Ground.003",
			"translation":[
				0,
				0,
				-22.22020149230957
			]
		}
	],
	"materials":[
		{
			"doubleSided":true,
			"emissiveFactor":[
				1,
				1,
				1
			],
			"emissiveTexture":{
				"index":0
			},
			"name":"Material.007",
			"pbrMetallicRoughness":{
				"baseColorFactor":[
					0,
					0,
					0,
					1
				]
			}
		}
	],
	"meshes":[
		{
			"name":"Plane.068",
			"primitives":[
				{
					"attributes":{
						"COLOR_0":0,
						"POSITION":1,
						"TEXCOORD_0":2,
						"NORMAL":3
					},
					"indices":4,
					"material":0
				}
			]
		}
	],
	"textures":[
		{
			"sampler":0,
			"source":0
		}
	],
	"images":[
		{
			
			"name":"expurban_structure_lightmap",
			"uri":"expurban_structure_lightmap.ktx2"
		}
	],
	"accessors":[
		{
			"bufferView":0,
			"componentType":5123,
			"count":4930,
			"normalized":true,
			"type":"VEC4"
		},
		{
			"bufferView":1,
			"componentType":5126,
			"count":4930,
			"max":[
				11.265685081481934,
				13.773860931396484,
				33.326133728027344
			],
			"min":[
				-18.463071823120117,
				-0.01784372329711914,
				-30.362529754638672
			],
			"type":"VEC3"
		},
		{
			"bufferView":2,
			"componentType":5126,
			"count":4930,
			"type":"VEC2"
		},
		{
			"bufferView":3,
			"componentType":5126,
			"count":4930,
			"type":"VEC3"
		},
		{
			"bufferView":4,
			"componentType":5123,
			"count":8139,
			"type":"SCALAR"
		}
	],
	"bufferViews":[
		{
			"buffer":0,
			"byteLength":39440,
			"byteOffset":0,
			"target":34962
		},
		{
			"buffer":0,
			"byteLength":59160,
			"byteOffset":39440,
			"target":34962
		},
		{
			"buffer":0,
			"byteLength":39440,
			"byteOffset":98600,
			"target":34962
		},
		{
			"buffer":0,
			"byteLength":59160,
			"byteOffset":138040,
			"target":34962
		},
		{
			"buffer":0,
			"byteLength":16278,
			"byteOffset":197200,
			"target":34963
		}
	],
	"samplers":[
		{
			"magFilter":9729,
			"minFilter":9987
		}
	],
	"buffers":[
		{
			"byteLength":213480,
			"uri":"expurban_structure.bin"
		}
	]
}
