{
	"asset":{
		"generator":"Khronos glTF Blender I/O v3.5.30",
		"version":"2.0"
	},
	"scene":0,
	"scenes":[
		{
			"extras":{
				"automirror":{
					"apply_mirror":0
				}
			},
			"name":"Scene",
			"nodes":[
				0
			]
		}
	],
	"nodes":[
		{
			"mesh":0,
			"name":"Plane.044",
			"rotation":[
				0.7071068286895752,
				0.7071068286895752,
				0,
				1.1520234011186403e-07
			],
			"translation":[
				-20.253070831298828,
				1,
				33.077781677246094
			]
		}
	],
	"materials":[
		{
			"doubleSided":true,
			"emissiveFactor":[
				1,
				1,
				1
			],
			"emissiveTexture":{
				"index":0
			},
			"name":"Material",
			"pbrMetallicRoughness":{
				"baseColorFactor":[
					0,
					0,
					0,
					1
				]
			}
		}
	],
	"meshes":[
		{
			"name":"Plane.076",
			"primitives":[
				{
					"attributes":{
						"COLOR_0":0,
						"POSITION":1,
						"TEXCOORD_0":2,
						"NORMAL":3
					},
					"indices":4,
					"material":0
				}
			]
		}
	],
	"textures":[
		{
			"sampler":0,
			"source":0
		}
	],
	"images":[
		{
			
			"name":"expurban_surroundingbuildings_lightmap",
			"uri":"expurban_surroundingbuildings_lightmap.ktx2"
		}
	],
	"accessors":[
		{
			"bufferView":0,
			"componentType":5123,
			"count":2160,
			"normalized":true,
			"type":"VEC4"
		},
		{
			"bufferView":1,
			"componentType":5126,
			"count":2160,
			"max":[
				20.66802978515625,
				39.71981430053711,
				76.26761627197266
			],
			"min":[
				-1.0000016689300537,
				-25.832763671875,
				-1.8145413398742676
			],
			"type":"VEC3"
		},
		{
			"bufferView":2,
			"componentType":5126,
			"count":2160,
			"type":"VEC2"
		},
		{
			"bufferView":3,
			"componentType":5126,
			"count":2160,
			"type":"VEC3"
		},
		{
			"bufferView":4,
			"componentType":5123,
			"count":5487,
			"type":"SCALAR"
		}
	],
	"bufferViews":[
		{
			"buffer":0,
			"byteLength":17280,
			"byteOffset":0,
			"target":34962
		},
		{
			"buffer":0,
			"byteLength":25920,
			"byteOffset":17280,
			"target":34962
		},
		{
			"buffer":0,
			"byteLength":17280,
			"byteOffset":43200,
			"target":34962
		},
		{
			"buffer":0,
			"byteLength":25920,
			"byteOffset":60480,
			"target":34962
		},
		{
			"buffer":0,
			"byteLength":10974,
			"byteOffset":86400,
			"target":34963
		}
	],
	"samplers":[
		{
			"magFilter":9729,
			"minFilter":9987
		}
	],
	"buffers":[
		{
			"byteLength":97376,
			"uri":"expurban_surroundingbuildings.bin"
		}
	]
}
