{
	"asset":{
		"generator":"Khronos glTF Blender I/O v3.5.30",
		"version":"2.0"
	},
	"scene":0,
	"scenes":[
		{
			"extras":{
				"automirror":{
					"apply_mirror":0
				}
			},
			"name":"Scene",
			"nodes":[
				0
			]
		}
	],
	"nodes":[
		{
			"extras":{
				"ant_landscape":{}
			},
			"mesh":0,
			"name":"Text.003",
			"rotation":[
				-0.095953069627285,
				0.7005662322044373,
				-0.7005662322044373,
				0.0959528312087059
			],
			"translation":[
				-16.133089065551758,
				1.755605936050415,
				11.097761154174805
			]
		}
	],
	"materials":[
		{
			"doubleSided":true,
			"emissiveFactor":[
				1,
				1,
				1
			],
			"emissiveTexture":{
				"index":0
			},
			"name":"Material.012",
			"pbrMetallicRoughness":{
				"baseColorFactor":[
					0,
					0,
					0,
					1
				]
			}
		}
	],
	"meshes":[
		{
			"name":"Text.008",
			"primitives":[
				{
					"attributes":{
						"COLOR_0":0,
						"POSITION":1,
						"TEXCOORD_0":2,
						"NORMAL":3
					},
					"indices":4,
					"material":0
				}
			]
		}
	],
	"textures":[
		{
			"sampler":0,
			"source":0
		}
	],
	"images":[
		{
			
			"name":"expurban_props_lightmap",
			"uri":"expurban_props_lightmap.ktx2"
		}
	],
	"accessors":[
		{
			"bufferView":0,
			"componentType":5123,
			"count":53039,
			"normalized":true,
			"type":"VEC4"
		},
		{
			"bufferView":1,
			"componentType":5126,
			"count":53039,
			"max":[
				2.1988091468811035,
				62.34822082519531,
				8.594715118408203
			],
			"min":[
				-25.337379455566406,
				-0.0081712007522583,
				-1.843550205230713
			],
			"type":"VEC3"
		},
		{
			"bufferView":2,
			"componentType":5126,
			"count":53039,
			"type":"VEC2"
		},
		{
			"bufferView":3,
			"componentType":5126,
			"count":53039,
			"type":"VEC3"
		},
		{
			"bufferView":4,
			"componentType":5123,
			"count":85617,
			"type":"SCALAR"
		}
	],
	"bufferViews":[
		{
			"buffer":0,
			"byteLength":424312,
			"byteOffset":0,
			"target":34962
		},
		{
			"buffer":0,
			"byteLength":636468,
			"byteOffset":424312,
			"target":34962
		},
		{
			"buffer":0,
			"byteLength":424312,
			"byteOffset":1060780,
			"target":34962
		},
		{
			"buffer":0,
			"byteLength":636468,
			"byteOffset":1485092,
			"target":34962
		},
		{
			"buffer":0,
			"byteLength":171234,
			"byteOffset":2121560,
			"target":34963
		}
	],
	"samplers":[
		{
			"magFilter":9729,
			"minFilter":9987
		}
	],
	"buffers":[
		{
			"byteLength":2292796,
			"uri":"expurban_props.bin"
		}
	]
}
