{
	"asset":{
		"generator":"Khronos glTF Blender I/O v3.5.30",
		"version":"2.0"
	},
	"scene":0,
	"scenes":[
		{
			"extras":{
				"automirror":{
					"apply_mirror":0
				}
			},
			"name":"Scene",
			"nodes":[
				0
			]
		}
	],
	"nodes":[
		{
			"mesh":0,
			"name":"Plane.034",
			"rotation":[
				0.7071068286895752,
				0,
				0,
				0.7071068286895752
			],
			"translation":[
				-3.694673538208008,
				1.1902856826782227,
				-7.582476615905762
			]
		}
	],
	"materials":[
		{
			"doubleSided":true,
			"emissiveFactor":[
				1,
				1,
				1
			],
			"emissiveTexture":{
				"index":0
			},
			"name":"Material.009",
			"pbrMetallicRoughness":{
				"baseColorFactor":[
					0,
					0,
					0,
					1
				]
			}
		}
	],
	"meshes":[
		{
			"name":"Plane.063",
			"primitives":[
				{
					"attributes":{
						"COLOR_0":0,
						"POSITION":1,
						"TEXCOORD_0":2,
						"NORMAL":3
					},
					"indices":4,
					"material":0
				}
			]
		}
	],
	"textures":[
		{
			"sampler":0,
			"source":0
		}
	],
	"images":[
		{
			
			"name":"ExpUrban",
			"uri":"ExpUrban.blend_Props_lightmap.ktx2"
		}
	],
	"accessors":[
		{
			"bufferView":0,
			"componentType":5123,
			"count":43377,
			"normalized":true,
			"type":"VEC4"
		},
		{
			"bufferView":1,
			"componentType":5126,
			"count":43377,
			"max":[
				13.246848106384277,
				17.946243286132812,
				1.2081313133239746
			],
			"min":[
				-14.279556274414062,
				-43.66798782348633,
				-2.8865034580230713
			],
			"type":"VEC3"
		},
		{
			"bufferView":2,
			"componentType":5126,
			"count":43377,
			"type":"VEC2"
		},
		{
			"bufferView":3,
			"componentType":5126,
			"count":43377,
			"type":"VEC3"
		},
		{
			"bufferView":4,
			"componentType":5123,
			"count":76260,
			"type":"SCALAR"
		}
	],
	"bufferViews":[
		{
			"buffer":0,
			"byteLength":347016,
			"byteOffset":0,
			"target":34962
		},
		{
			"buffer":0,
			"byteLength":520524,
			"byteOffset":347016,
			"target":34962
		},
		{
			"buffer":0,
			"byteLength":347016,
			"byteOffset":867540,
			"target":34962
		},
		{
			"buffer":0,
			"byteLength":520524,
			"byteOffset":1214556,
			"target":34962
		},
		{
			"buffer":0,
			"byteLength":152520,
			"byteOffset":1735080,
			"target":34963
		}
	],
	"samplers":[
		{
			"magFilter":9729,
			"minFilter":9987
		}
	],
	"buffers":[
		{
			"byteLength":1887600,
			"uri":"ExpUrban.blend_Props.bin"
		}
	]
}
