{
	"asset":{
		"generator":"Khronos glTF Blender I/O v3.5.30",
		"version":"2.0"
	},
	"scene":0,
	"scenes":[
		{
			"name":"Scene",
			"nodes":[
				0
			]
		}
	],
	"nodes":[
		{
			"mesh":0,
			"name":"Cylinder",
			"translation":[
				58.36825180053711,
				-284.5090637207031,
				-642.2233276367188
			]
		}
	],
	"materials":[
		{
			"doubleSided":true,
			"emissiveFactor":[
				1,
				1,
				1
			],
			"emissiveTexture":{
				"index":0
			},
			"name":"Material.003",
			"pbrMetallicRoughness":{
				"baseColorFactor":[
					0,
					0,
					0,
					1
				]
			}
		}
	],
	"meshes":[
		{
			"name":"Cylinder",
			"primitives":[
				{
					"attributes":{
						"COLOR_0":0,
						"POSITION":1,
						"TEXCOORD_0":2,
						"NORMAL":3
					},
					"indices":4,
					"material":0
				}
			]
		}
	],
	"textures":[
		{
			"sampler":0,
			"source":0
		}
	],
	"images":[
		{
			
			"name":"expbf1_start_lightmap",
			"uri":"expbf1_start_lightmap.ktx2"
		}
	],
	"accessors":[
		{
			"bufferView":0,
			"componentType":5123,
			"count":7448,
			"normalized":true,
			"type":"VEC4"
		},
		{
			"bufferView":1,
			"componentType":5126,
			"count":7448,
			"max":[
				18.292400360107422,
				306.8923645019531,
				648.2605590820312
			],
			"min":[
				-112.70774841308594,
				-172.56785583496094,
				-18.29252815246582
			],
			"type":"VEC3"
		},
		{
			"bufferView":2,
			"componentType":5126,
			"count":7448,
			"type":"VEC2"
		},
		{
			"bufferView":3,
			"componentType":5126,
			"count":7448,
			"type":"VEC3"
		},
		{
			"bufferView":4,
			"componentType":5123,
			"count":11520,
			"type":"SCALAR"
		}
	],
	"bufferViews":[
		{
			"buffer":0,
			"byteLength":59584,
			"byteOffset":0,
			"target":34962
		},
		{
			"buffer":0,
			"byteLength":89376,
			"byteOffset":59584,
			"target":34962
		},
		{
			"buffer":0,
			"byteLength":59584,
			"byteOffset":148960,
			"target":34962
		},
		{
			"buffer":0,
			"byteLength":89376,
			"byteOffset":208544,
			"target":34962
		},
		{
			"buffer":0,
			"byteLength":23040,
			"byteOffset":297920,
			"target":34963
		}
	],
	"samplers":[
		{
			"magFilter":9729,
			"minFilter":9987
		}
	],
	"buffers":[
		{
			"byteLength":320960,
			"uri":"expbf1_start.bin"
		}
	]
}
