{
	"asset":{
		"generator":"Khronos glTF Blender I/O v3.5.30",
		"version":"2.0"
	},
	"scene":0,
	"scenes":[
		{
			"name":"Scene",
			"nodes":[
				0
			]
		}
	],
	"nodes":[
		{
			"extras":{
				"ant_landscape":{}
			},
			"mesh":0,
			"name":"Cube.042",
			"translation":[
				2.3972368240356445,
				-23.18328857421875,
				-152.86672973632812
			]
		}
	],
	"materials":[
		{
			"doubleSided":true,
			"emissiveFactor":[
				1,
				1,
				1
			],
			"emissiveTexture":{
				"index":0
			},
			"name":"Material.004",
			"pbrMetallicRoughness":{
				"baseColorFactor":[
					0,
					0,
					0,
					1
				]
			}
		}
	],
	"meshes":[
		{
			"name":"Cube.172",
			"primitives":[
				{
					"attributes":{
						"COLOR_0":0,
						"POSITION":1,
						"TEXCOORD_0":2,
						"NORMAL":3
					},
					"indices":4,
					"material":0
				}
			]
		}
	],
	"textures":[
		{
			"sampler":0,
			"source":0
		}
	],
	"images":[
		{
			
			"name":"expbf1_mid_lightmap",
			"uri":"expbf1_mid_lightmap.ktx2"
		}
	],
	"accessors":[
		{
			"bufferView":0,
			"componentType":5123,
			"count":733,
			"normalized":true,
			"type":"VEC4"
		},
		{
			"bufferView":1,
			"componentType":5126,
			"count":733,
			"max":[
				61.0532341003418,
				64.47956085205078,
				23.34687042236328
			],
			"min":[
				-61.0532341003418,
				-68.75944519042969,
				-345.7138671875
			],
			"type":"VEC3"
		},
		{
			"bufferView":2,
			"componentType":5126,
			"count":733,
			"type":"VEC2"
		},
		{
			"bufferView":3,
			"componentType":5126,
			"count":733,
			"type":"VEC3"
		},
		{
			"bufferView":4,
			"componentType":5123,
			"count":1608,
			"type":"SCALAR"
		}
	],
	"bufferViews":[
		{
			"buffer":0,
			"byteLength":5864,
			"byteOffset":0,
			"target":34962
		},
		{
			"buffer":0,
			"byteLength":8796,
			"byteOffset":5864,
			"target":34962
		},
		{
			"buffer":0,
			"byteLength":5864,
			"byteOffset":14660,
			"target":34962
		},
		{
			"buffer":0,
			"byteLength":8796,
			"byteOffset":20524,
			"target":34962
		},
		{
			"buffer":0,
			"byteLength":3216,
			"byteOffset":29320,
			"target":34963
		}
	],
	"samplers":[
		{
			"magFilter":9729,
			"minFilter":9987
		}
	],
	"buffers":[
		{
			"byteLength":32536,
			"uri":"expbf1_mid.bin"
		}
	]
}
