{
	"asset":{
		"generator":"Khronos glTF Blender I/O v3.5.30",
		"version":"2.0"
	},
	"scene":0,
	"scenes":[
		{
			"name":"Scene",
			"nodes":[
				0
			]
		}
	],
	"nodes":[
		{
			"extras":{
				"ant_landscape":{}
			},
			"mesh":0,
			"name":"Cube.053",
			"translation":[
				58.090972900390625,
				-256.1393127441406,
				-516.9265747070312
			]
		}
	],
	"materials":[
		{
			"doubleSided":true,
			"emissiveFactor":[
				1,
				1,
				1
			],
			"emissiveTexture":{
				"index":0
			},
			"name":"Material.005",
			"pbrMetallicRoughness":{
				"baseColorFactor":[
					0,
					0,
					0,
					1
				]
			}
		}
	],
	"meshes":[
		{
			"name":"Cube.185",
			"primitives":[
				{
					"attributes":{
						"COLOR_0":0,
						"POSITION":1,
						"TEXCOORD_0":2,
						"NORMAL":3
					},
					"indices":4,
					"material":0
				}
			]
		}
	],
	"textures":[
		{
			"sampler":0,
			"source":0
		}
	],
	"images":[
		{
			
			"name":"expbf1_down_lightmap",
			"uri":"expbf1_down_lightmap.ktx2"
		}
	],
	"accessors":[
		{
			"bufferView":0,
			"componentType":5123,
			"count":296,
			"normalized":true,
			"type":"VEC4"
		},
		{
			"bufferView":1,
			"componentType":5126,
			"count":296,
			"max":[
				114.73251342773438,
				161.73040771484375,
				127.38800811767578
			],
			"min":[
				-117.67086791992188,
				-16.65444564819336,
				-143.38876342773438
			],
			"type":"VEC3"
		},
		{
			"bufferView":2,
			"componentType":5126,
			"count":296,
			"type":"VEC2"
		},
		{
			"bufferView":3,
			"componentType":5126,
			"count":296,
			"type":"VEC3"
		},
		{
			"bufferView":4,
			"componentType":5123,
			"count":492,
			"type":"SCALAR"
		}
	],
	"bufferViews":[
		{
			"buffer":0,
			"byteLength":2368,
			"byteOffset":0,
			"target":34962
		},
		{
			"buffer":0,
			"byteLength":3552,
			"byteOffset":2368,
			"target":34962
		},
		{
			"buffer":0,
			"byteLength":2368,
			"byteOffset":5920,
			"target":34962
		},
		{
			"buffer":0,
			"byteLength":3552,
			"byteOffset":8288,
			"target":34962
		},
		{
			"buffer":0,
			"byteLength":984,
			"byteOffset":11840,
			"target":34963
		}
	],
	"samplers":[
		{
			"magFilter":9729,
			"minFilter":9987
		}
	],
	"buffers":[
		{
			"byteLength":12824,
			"uri":"expbf1_down.bin"
		}
	]
}
