{
	"asset":{
		"generator":"Khronos glTF Blender I/O v3.5.30",
		"version":"2.0"
	},
	"scene":0,
	"scenes":[
		{
			"name":"Scene",
			"nodes":[
				0
			]
		}
	],
	"nodes":[
		{
			"mesh":0,
			"name":"building wall",
			"translation":[
				-105.9708251953125,
				19.21579360961914,
				-41.41643142700195
			]
		}
	],
	"materials":[
		{
			"doubleSided":true,
			"emissiveFactor":[
				1,
				1,
				1
			],
			"emissiveTexture":{
				"index":0
			},
			"name":"Material.005",
			"pbrMetallicRoughness":{
				"baseColorFactor":[
					0,
					0,
					0,
					1
				]
			}
		}
	],
	"meshes":[
		{
			"name":"Cube.005",
			"primitives":[
				{
					"attributes":{
						"COLOR_0":0,
						"POSITION":1,
						"TEXCOORD_0":2,
						"NORMAL":3
					},
					"indices":4,
					"material":0
				}
			]
		}
	],
	"textures":[
		{
			"sampler":0,
			"source":0
		}
	],
	"images":[
		{
			
			"name":"expbf_start_building_lightmap",
			"uri":"expbf_start_building_lightmap.ktx2"
		}
	],
	"accessors":[
		{
			"bufferView":0,
			"componentType":5123,
			"count":1232,
			"normalized":true,
			"type":"VEC4"
		},
		{
			"bufferView":1,
			"componentType":5126,
			"count":1232,
			"max":[
				12.278877258300781,
				2.458751678466797,
				46.41416549682617
			],
			"min":[
				-12.263145446777344,
				-57.212013244628906,
				-10.629722595214844
			],
			"type":"VEC3"
		},
		{
			"bufferView":2,
			"componentType":5126,
			"count":1232,
			"type":"VEC2"
		},
		{
			"bufferView":3,
			"componentType":5126,
			"count":1232,
			"type":"VEC3"
		},
		{
			"bufferView":4,
			"componentType":5123,
			"count":1920,
			"type":"SCALAR"
		}
	],
	"bufferViews":[
		{
			"buffer":0,
			"byteLength":9856,
			"byteOffset":0,
			"target":34962
		},
		{
			"buffer":0,
			"byteLength":14784,
			"byteOffset":9856,
			"target":34962
		},
		{
			"buffer":0,
			"byteLength":9856,
			"byteOffset":24640,
			"target":34962
		},
		{
			"buffer":0,
			"byteLength":14784,
			"byteOffset":34496,
			"target":34962
		},
		{
			"buffer":0,
			"byteLength":3840,
			"byteOffset":49280,
			"target":34963
		}
	],
	"samplers":[
		{
			"magFilter":9729,
			"minFilter":9987
		}
	],
	"buffers":[
		{
			"byteLength":53120,
			"uri":"expbf_start_building.bin"
		}
	]
}
