{
	"asset":{
		"generator":"Khronos glTF Blender I/O v3.5.30",
		"version":"2.0"
	},
	"scene":0,
	"scenes":[
		{
			"name":"Scene",
			"nodes":[
				0
			]
		}
	],
	"nodes":[
		{
			"mesh":0,
			"name":"rocks",
			"translation":[
				-40.69561767578125,
				26.07305145263672,
				46.346923828125
			]
		}
	],
	"materials":[
		{
			"doubleSided":true,
			"emissiveFactor":[
				1,
				1,
				1
			],
			"emissiveTexture":{
				"index":0
			},
			"name":"Material.004",
			"pbrMetallicRoughness":{
				"baseColorFactor":[
					0,
					0,
					0,
					1
				]
			}
		}
	],
	"meshes":[
		{
			"name":"Plane.001",
			"primitives":[
				{
					"attributes":{
						"COLOR_0":0,
						"POSITION":1,
						"TEXCOORD_0":2,
						"NORMAL":3
					},
					"indices":4,
					"material":0
				}
			]
		}
	],
	"textures":[
		{
			"sampler":0,
			"source":0
		}
	],
	"images":[
		{
			
			"name":"expbf_start_rocks_lightmap",
			"uri":"expbf_start_rocks_lightmap.ktx2"
		}
	],
	"accessors":[
		{
			"bufferView":0,
			"componentType":5123,
			"count":7535,
			"normalized":true,
			"type":"VEC4"
		},
		{
			"bufferView":1,
			"componentType":5126,
			"count":7535,
			"max":[
				137.98031616210938,
				23.25588035583496,
				70.51265716552734
			],
			"min":[
				-133.04444885253906,
				-56.74220275878906,
				-41.374549865722656
			],
			"type":"VEC3"
		},
		{
			"bufferView":2,
			"componentType":5126,
			"count":7535,
			"type":"VEC2"
		},
		{
			"bufferView":3,
			"componentType":5126,
			"count":7535,
			"type":"VEC3"
		},
		{
			"bufferView":4,
			"componentType":5123,
			"count":44202,
			"type":"SCALAR"
		}
	],
	"bufferViews":[
		{
			"buffer":0,
			"byteLength":60280,
			"byteOffset":0,
			"target":34962
		},
		{
			"buffer":0,
			"byteLength":90420,
			"byteOffset":60280,
			"target":34962
		},
		{
			"buffer":0,
			"byteLength":60280,
			"byteOffset":150700,
			"target":34962
		},
		{
			"buffer":0,
			"byteLength":90420,
			"byteOffset":210980,
			"target":34962
		},
		{
			"buffer":0,
			"byteLength":88404,
			"byteOffset":301400,
			"target":34963
		}
	],
	"samplers":[
		{
			"magFilter":9729,
			"minFilter":9987
		}
	],
	"buffers":[
		{
			"byteLength":389804,
			"uri":"expbf_start_rocks.bin"
		}
	]
}
