{
	"asset":{
		"generator":"Khronos glTF Blender I/O v3.5.30",
		"version":"2.0"
	},
	"scene":0,
	"scenes":[
		{
			"name":"Scene",
			"nodes":[
				0
			]
		}
	],
	"nodes":[
		{
			"extras":{
				"ant_landscape":{}
			},
			"mesh":0,
			"name":"grass",
			"translation":[
				-49.66563034057617,
				1.1507232189178467,
				0
			]
		}
	],
	"materials":[
		{
			"doubleSided":true,
			"emissiveFactor":[
				1,
				1,
				1
			],
			"emissiveTexture":{
				"index":0
			},
			"name":"Material",
			"pbrMetallicRoughness":{
				"baseColorFactor":[
					0,
					0,
					0,
					1
				]
			}
		}
	],
	"meshes":[
		{
			"name":"Plane",
			"primitives":[
				{
					"attributes":{
						"COLOR_0":0,
						"POSITION":1,
						"TEXCOORD_0":2,
						"NORMAL":3
					},
					"indices":4,
					"material":0
				}
			]
		}
	],
	"textures":[
		{
			"sampler":0,
			"source":0
		}
	],
	"images":[
		{
			
			"name":"expbf_start_grass_lightmap",
			"uri":"expbf_start_grass_lightmap.ktx2"
		}
	],
	"accessors":[
		{
			"bufferView":0,
			"componentType":5123,
			"count":9217,
			"normalized":true,
			"type":"VEC4"
		},
		{
			"bufferView":1,
			"componentType":5126,
			"count":9217,
			"max":[
				107.52921295166016,
				1.1926078796386719,
				47.40153121948242
			],
			"min":[
				-88.73890686035156,
				-47.278541564941406,
				-47.70632553100586
			],
			"type":"VEC3"
		},
		{
			"bufferView":2,
			"componentType":5126,
			"count":9217,
			"type":"VEC2"
		},
		{
			"bufferView":3,
			"componentType":5126,
			"count":9217,
			"type":"VEC3"
		},
		{
			"bufferView":4,
			"componentType":5123,
			"count":54624,
			"type":"SCALAR"
		}
	],
	"bufferViews":[
		{
			"buffer":0,
			"byteLength":73736,
			"byteOffset":0,
			"target":34962
		},
		{
			"buffer":0,
			"byteLength":110604,
			"byteOffset":73736,
			"target":34962
		},
		{
			"buffer":0,
			"byteLength":73736,
			"byteOffset":184340,
			"target":34962
		},
		{
			"buffer":0,
			"byteLength":110604,
			"byteOffset":258076,
			"target":34962
		},
		{
			"buffer":0,
			"byteLength":109248,
			"byteOffset":368680,
			"target":34963
		}
	],
	"samplers":[
		{
			"magFilter":9729,
			"minFilter":9987
		}
	],
	"buffers":[
		{
			"byteLength":477928,
			"uri":"expbf_start_grass.bin"
		}
	]
}
