{
	"asset":{
		"generator":"Khronos glTF Blender I/O v3.5.30",
		"version":"2.0"
	},
	"scene":0,
	"scenes":[
		{
			"extras":{
				"C_Slots_settings":{
					"Terrain_pointer":{}
				},
				"automirror":{}
			},
			"name":"Scene",
			"nodes":[
				0,
				1,
				2
			]
		}
	],
	"nodes":[
		{
			"mesh":0,
			"name":"LightShaft.001",
			"rotation":[
				0,
				-0.29637959599494934,
				0.9550703167915344,
				1.295516671717678e-08
			],
			"scale":[
				2.772976875305176,
				1,
				1.4104541540145874
			],
			"translation":[
				0.023196227848529816,
				1.695074439048767,
				-1.0181928873062134
			]
		},
		{
			"mesh":1,
			"name":"LightShaft.002",
			"rotation":[
				0,
				-0.29637959599494934,
				0.9550703167915344,
				1.295516671717678e-08
			],
			"scale":[
				2.772976875305176,
				1,
				1.4104541540145874
			],
			"translation":[
				0.023196212947368622,
				1.5571519136428833,
				-1.1129155158996582
			]
		},
		{
			"mesh":2,
			"name":"LightShaft",
			"rotation":[
				0,
				-0.29637959599494934,
				0.9550703167915344,
				1.295516671717678e-08
			],
			"scale":[
				2.772976875305176,
				1,
				1.4104541540145874
			],
			"translation":[
				0.023196198046207428,
				1.4167710542678833,
				-1.2093265056610107
			]
		}
	],
	"materials":[
		{
			"alphaMode":"BLEND",
			"doubleSided":true,
			"emissiveFactor":[
				1,
				1,
				1
			],
			"name":"Material.030",
			"pbrMetallicRoughness":{
				"baseColorFactor":[
					0.800000011920929,
					0.800000011920929,
					0.800000011920929,
					1
				],
				"metallicFactor":0,
				"roughnessFactor":0.5
			}
		}
	],
	"meshes":[
		{
			"name":"Plane.055",
			"primitives":[
				{
					"attributes":{
						"POSITION":0,
						"TEXCOORD_0":1,
						"NORMAL":2,
						"TANGENT":3
					},
					"indices":4,
					"material":0
				}
			]
		},
		{
			"name":"Plane.056",
			"primitives":[
				{
					"attributes":{
						"POSITION":5,
						"TEXCOORD_0":6,
						"NORMAL":7,
						"TANGENT":8
					},
					"indices":4,
					"material":0
				}
			]
		},
		{
			"name":"Plane.057",
			"primitives":[
				{
					"attributes":{
						"POSITION":9,
						"TEXCOORD_0":10,
						"NORMAL":11,
						"TANGENT":12
					},
					"indices":4,
					"material":0
				}
			]
		}
	],
	"accessors":[
		{
			"bufferView":0,
			"componentType":5126,
			"count":4,
			"max":[
				0.3463171720504761,
				1.4901161193847656e-08,
				1.193472146987915
			],
			"min":[
				-0.3463171720504761,
				1.862645149230957e-09,
				-0.1929611712694168
			],
			"type":"VEC3"
		},
		{
			"bufferView":1,
			"componentType":5126,
			"count":4,
			"type":"VEC2"
		},
		{
			"bufferView":2,
			"componentType":5126,
			"count":4,
			"type":"VEC3"
		},
		{
			"bufferView":3,
			"componentType":5126,
			"count":4,
			"type":"VEC4"
		},
		{
			"bufferView":4,
			"componentType":5123,
			"count":6,
			"type":"SCALAR"
		},
		{
			"bufferView":5,
			"componentType":5126,
			"count":4,
			"max":[
				0.3463171720504761,
				2.60770320892334e-08,
				1.193472146987915
			],
			"min":[
				-0.3463171720504761,
				0,
				-0.10921984910964966
			],
			"type":"VEC3"
		},
		{
			"bufferView":6,
			"componentType":5126,
			"count":4,
			"type":"VEC2"
		},
		{
			"bufferView":7,
			"componentType":5126,
			"count":4,
			"type":"VEC3"
		},
		{
			"bufferView":8,
			"componentType":5126,
			"count":4,
			"type":"VEC4"
		},
		{
			"bufferView":9,
			"componentType":5126,
			"count":4,
			"max":[
				0.3463171720504761,
				2.9802322387695312e-08,
				1.193472146987915
			],
			"min":[
				-0.3463171720504761,
				1.862645149230957e-09,
				-0.029993832111358643
			],
			"type":"VEC3"
		},
		{
			"bufferView":10,
			"componentType":5126,
			"count":4,
			"type":"VEC2"
		},
		{
			"bufferView":11,
			"componentType":5126,
			"count":4,
			"type":"VEC3"
		},
		{
			"bufferView":12,
			"componentType":5126,
			"count":4,
			"type":"VEC4"
		}
	],
	"bufferViews":[
		{
			"buffer":0,
			"byteLength":48,
			"byteOffset":0,
			"target":34962
		},
		{
			"buffer":0,
			"byteLength":32,
			"byteOffset":48,
			"target":34962
		},
		{
			"buffer":0,
			"byteLength":48,
			"byteOffset":80,
			"target":34962
		},
		{
			"buffer":0,
			"byteLength":64,
			"byteOffset":128,
			"target":34962
		},
		{
			"buffer":0,
			"byteLength":12,
			"byteOffset":192,
			"target":34963
		},
		{
			"buffer":0,
			"byteLength":48,
			"byteOffset":204,
			"target":34962
		},
		{
			"buffer":0,
			"byteLength":32,
			"byteOffset":252,
			"target":34962
		},
		{
			"buffer":0,
			"byteLength":48,
			"byteOffset":284,
			"target":34962
		},
		{
			"buffer":0,
			"byteLength":64,
			"byteOffset":332,
			"target":34962
		},
		{
			"buffer":0,
			"byteLength":48,
			"byteOffset":396,
			"target":34962
		},
		{
			"buffer":0,
			"byteLength":32,
			"byteOffset":444,
			"target":34962
		},
		{
			"buffer":0,
			"byteLength":48,
			"byteOffset":476,
			"target":34962
		},
		{
			"buffer":0,
			"byteLength":64,
			"byteOffset":524,
			"target":34962
		}
	],
	"buffers":[
		{
			"byteLength":588,
			"uri":"copier_dust.bin"
		}
	]
}
