{
	"asset":{
		"generator":"Khronos glTF Blender I/O v3.5.30",
		"version":"2.0"
	},
	"scene":0,
	"scenes":[
		{
			"extras":{
				"C_Slots_settings":{
					"Terrain_pointer":{}
				},
				"automirror":{}
			},
			"name":"Scene",
			"nodes":[
				0
			]
		}
	],
	"nodes":[
		{
			"extras":{
				"ant_landscape":{}
			},
			"mesh":0,
			"name":"Coordinates on Box",
			"rotation":[
				0.5485621094703674,
				0.5485621094703674,
				-0.44618338346481323,
				0.44618335366249084
			],
			"translation":[
				0.31809234619140625,
				1.8946105241775513,
				1.3532010316848755
			]
		}
	],
	"materials":[
		{
			"doubleSided":true,
			"emissiveFactor":[
				1,
				1,
				1
			],
			"emissiveTexture":{
				"index":0
			},
			"name":"Material.023",
			"pbrMetallicRoughness":{
				"baseColorFactor":[
					0,
					0,
					0,
					1
				]
			}
		}
	],
	"meshes":[
		{
			"name":"Text.003",
			"primitives":[
				{
					"attributes":{
						"COLOR_0":0,
						"POSITION":1,
						"TEXCOORD_0":2,
						"NORMAL":3
					},
					"indices":4,
					"material":0
				}
			]
		}
	],
	"textures":[
		{
			"sampler":0,
			"source":0
		}
	],
	"images":[
		{
			
			"name":"expcopierroom_coordinatesclock_lightmap",
			"uri":"expcopierroom_coordinatesclock_lightmap.ktx2"
		}
	],
	"accessors":[
		{
			"bufferView":0,
			"componentType":5123,
			"count":28580,
			"normalized":true,
			"type":"VEC4"
		},
		{
			"bufferView":1,
			"componentType":5126,
			"count":28580,
			"max":[
				1.5677200555801392,
				0,
				1.0401424169540405
			],
			"min":[
				-0.0029825184028595686,
				-0.20577524602413177,
				-0.025558048859238625
			],
			"type":"VEC3"
		},
		{
			"bufferView":2,
			"componentType":5126,
			"count":28580,
			"type":"VEC2"
		},
		{
			"bufferView":3,
			"componentType":5126,
			"count":28580,
			"type":"VEC3"
		},
		{
			"bufferView":4,
			"componentType":5123,
			"count":33471,
			"type":"SCALAR"
		}
	],
	"bufferViews":[
		{
			"buffer":0,
			"byteLength":228640,
			"byteOffset":0,
			"target":34962
		},
		{
			"buffer":0,
			"byteLength":342960,
			"byteOffset":228640,
			"target":34962
		},
		{
			"buffer":0,
			"byteLength":228640,
			"byteOffset":571600,
			"target":34962
		},
		{
			"buffer":0,
			"byteLength":342960,
			"byteOffset":800240,
			"target":34962
		},
		{
			"buffer":0,
			"byteLength":66942,
			"byteOffset":1143200,
			"target":34963
		}
	],
	"samplers":[
		{
			"magFilter":9729,
			"minFilter":9987
		}
	],
	"buffers":[
		{
			"byteLength":1210144,
			"uri":"expcopierroom_coordinatesclock.bin"
		}
	]
}
