{
	"asset":{
		"generator":"Khronos glTF Blender I/O v3.5.30",
		"version":"2.0"
	},
	"scene":0,
	"scenes":[
		{
			"extras":{
				"C_Slots_settings":{
					"Terrain_pointer":{}
				},
				"automirror":{}
			},
			"name":"Scene",
			"nodes":[
				0
			]
		}
	],
	"nodes":[
		{
			"mesh":0,
			"name":"Text",
			"rotation":[
				0,
				-0.7071068286895752,
				0.7071068286895752,
				1.461109633282831e-07
			],
			"translation":[
				1.056910753250122,
				1.6015338897705078,
				1.5144526958465576
			]
		}
	],
	"materials":[
		{
			"doubleSided":true,
			"emissiveFactor":[
				1,
				1,
				1
			],
			"emissiveTexture":{
				"index":0
			},
			"name":"Material.022",
			"pbrMetallicRoughness":{
				"baseColorFactor":[
					0,
					0,
					0,
					1
				]
			}
		}
	],
	"meshes":[
		{
			"name":"Text.001",
			"primitives":[
				{
					"attributes":{
						"COLOR_0":0,
						"POSITION":1,
						"TEXCOORD_0":2,
						"NORMAL":3
					},
					"indices":4,
					"material":0
				}
			]
		}
	],
	"textures":[
		{
			"sampler":0,
			"source":0
		}
	],
	"images":[
		{
			
			"name":"expcopierroom_props_lightmap",
			"uri":"expcopierroom_props_lightmap.ktx2"
		}
	],
	"accessors":[
		{
			"bufferView":0,
			"componentType":5123,
			"count":95081,
			"normalized":true,
			"type":"VEC4"
		},
		{
			"bufferView":1,
			"componentType":5126,
			"count":95081,
			"max":[
				2.3767402172088623,
				2.33803653717041,
				1.6015347242355347
			],
			"min":[
				-0.5073142051696777,
				-0.010621841996908188,
				-0.410366028547287
			],
			"type":"VEC3"
		},
		{
			"bufferView":2,
			"componentType":5126,
			"count":95081,
			"type":"VEC2"
		},
		{
			"bufferView":3,
			"componentType":5126,
			"count":95081,
			"type":"VEC3"
		},
		{
			"bufferView":4,
			"componentType":5125,
			"count":188769,
			"type":"SCALAR"
		}
	],
	"bufferViews":[
		{
			"buffer":0,
			"byteLength":760648,
			"byteOffset":0,
			"target":34962
		},
		{
			"buffer":0,
			"byteLength":1140972,
			"byteOffset":760648,
			"target":34962
		},
		{
			"buffer":0,
			"byteLength":760648,
			"byteOffset":1901620,
			"target":34962
		},
		{
			"buffer":0,
			"byteLength":1140972,
			"byteOffset":2662268,
			"target":34962
		},
		{
			"buffer":0,
			"byteLength":755076,
			"byteOffset":3803240,
			"target":34963
		}
	],
	"samplers":[
		{
			"magFilter":9729,
			"minFilter":9987
		}
	],
	"buffers":[
		{
			"byteLength":4558316,
			"uri":"expcopierroom_props.bin"
		}
	]
}
