{
	"asset":{
		"generator":"Khronos glTF Blender I/O v3.5.30",
		"version":"2.0"
	},
	"scene":0,
	"scenes":[
		{
			"extras":{
				"C_Slots_settings":{
					"Terrain_pointer":{}
				},
				"automirror":{}
			},
			"name":"Scene",
			"nodes":[
				0
			]
		}
	],
	"nodes":[
		{
			"extras":{
				"ant_landscape":{}
			},
			"mesh":0,
			"name":"Floor.001",
			"translation":[
				0.14975041151046753,
				2.4384000301361084,
				0.3258568346500397
			]
		}
	],
	"materials":[
		{
			"doubleSided":true,
			"emissiveFactor":[
				1,
				1,
				1
			],
			"emissiveTexture":{
				"index":0
			},
			"name":"Material.010",
			"pbrMetallicRoughness":{
				"baseColorFactor":[
					0,
					0,
					0,
					1
				]
			}
		}
	],
	"meshes":[
		{
			"name":"Plane.014",
			"primitives":[
				{
					"attributes":{
						"COLOR_0":0,
						"POSITION":1,
						"TEXCOORD_0":2,
						"NORMAL":3
					},
					"indices":4,
					"material":0
				}
			]
		}
	],
	"textures":[
		{
			"sampler":0,
			"source":0
		}
	],
	"images":[
		{
			
			"name":"expcopierroom_room_lightmap",
			"uri":"expcopierroom_room_lightmap.ktx2"
		}
	],
	"accessors":[
		{
			"bufferView":0,
			"componentType":5123,
			"count":1048,
			"normalized":true,
			"type":"VEC4"
		},
		{
			"bufferView":1,
			"componentType":5126,
			"count":1048,
			"max":[
				1.6377590894699097,
				0.08552812784910202,
				1.3329590559005737
			],
			"min":[
				-1.6377590894699097,
				-2.4383997917175293,
				-1.3472901582717896
			],
			"type":"VEC3"
		},
		{
			"bufferView":2,
			"componentType":5126,
			"count":1048,
			"type":"VEC2"
		},
		{
			"bufferView":3,
			"componentType":5126,
			"count":1048,
			"type":"VEC3"
		},
		{
			"bufferView":4,
			"componentType":5123,
			"count":2364,
			"type":"SCALAR"
		}
	],
	"bufferViews":[
		{
			"buffer":0,
			"byteLength":8384,
			"byteOffset":0,
			"target":34962
		},
		{
			"buffer":0,
			"byteLength":12576,
			"byteOffset":8384,
			"target":34962
		},
		{
			"buffer":0,
			"byteLength":8384,
			"byteOffset":20960,
			"target":34962
		},
		{
			"buffer":0,
			"byteLength":12576,
			"byteOffset":29344,
			"target":34962
		},
		{
			"buffer":0,
			"byteLength":4728,
			"byteOffset":41920,
			"target":34963
		}
	],
	"samplers":[
		{
			"magFilter":9729,
			"minFilter":9987
		}
	],
	"buffers":[
		{
			"byteLength":46648,
			"uri":"expcopierroom_room.bin"
		}
	]
}
