{
	"asset":{
		"generator":"Khronos glTF Blender I/O v3.5.30",
		"version":"2.0"
	},
	"scene":0,
	"scenes":[
		{
			"extras":{
				"automirror":{}
			},
			"name":"Scene",
			"nodes":[
				0
			]
		}
	],
	"nodes":[
		{
			"mesh":0,
			"name":"Sponge",
			"translation":[
				-0.363092839717865,
				1.0980308055877686,
				-1.5441272258758545
			]
		}
	],
	"materials":[
		{
			"doubleSided":true,
			"emissiveFactor":[
				1,
				1,
				1
			],
			"emissiveTexture":{
				"index":0
			},
			"name":"Material.024",
			"pbrMetallicRoughness":{
				"baseColorFactor":[
					0,
					0,
					0,
					1
				]
			}
		}
	],
	"meshes":[
		{
			"name":"Cube.060",
			"primitives":[
				{
					"attributes":{
						"COLOR_0":0,
						"POSITION":1,
						"TEXCOORD_0":2,
						"NORMAL":3
					},
					"indices":4,
					"material":0
				}
			]
		}
	],
	"textures":[
		{
			"sampler":0,
			"source":0
		}
	],
	"images":[
		{
			
			"name":"expkitchen_props_lightmap",
			"uri":"expkitchen_props_lightmap.ktx2"
		}
	],
	"accessors":[
		{
			"bufferView":0,
			"componentType":5123,
			"count":46810,
			"normalized":true,
			"type":"VEC4"
		},
		{
			"bufferView":1,
			"componentType":5126,
			"count":46810,
			"max":[
				3.744492530822754,
				1.0909483432769775,
				3.9163904190063477
			],
			"min":[
				-1.4657070636749268,
				-1.1018238067626953,
				-0.927020788192749
			],
			"type":"VEC3"
		},
		{
			"bufferView":2,
			"componentType":5126,
			"count":46810,
			"type":"VEC2"
		},
		{
			"bufferView":3,
			"componentType":5126,
			"count":46810,
			"type":"VEC3"
		},
		{
			"bufferView":4,
			"componentType":5123,
			"count":108642,
			"type":"SCALAR"
		}
	],
	"bufferViews":[
		{
			"buffer":0,
			"byteLength":374480,
			"byteOffset":0,
			"target":34962
		},
		{
			"buffer":0,
			"byteLength":561720,
			"byteOffset":374480,
			"target":34962
		},
		{
			"buffer":0,
			"byteLength":374480,
			"byteOffset":936200,
			"target":34962
		},
		{
			"buffer":0,
			"byteLength":561720,
			"byteOffset":1310680,
			"target":34962
		},
		{
			"buffer":0,
			"byteLength":217284,
			"byteOffset":1872400,
			"target":34963
		}
	],
	"samplers":[
		{
			"magFilter":9729,
			"minFilter":9987
		}
	],
	"buffers":[
		{
			"byteLength":2089684,
			"uri":"expkitchen_props.bin"
		}
	]
}
