{
	"asset":{
		"generator":"Khronos glTF Blender I/O v3.5.30",
		"version":"2.0"
	},
	"scene":0,
	"scenes":[
		{
			"extras":{
				"automirror":{}
			},
			"name":"Scene",
			"nodes":[
				0
			]
		}
	],
	"nodes":[
		{
			"extras":{
				"ant_landscape":{}
			},
			"mesh":0,
			"name":"Ceiling",
			"translation":[
				0.8496828675270081,
				2.4807958602905273,
				0.31070876121520996
			]
		}
	],
	"materials":[
		{
			"doubleSided":true,
			"emissiveFactor":[
				1,
				1,
				1
			],
			"emissiveTexture":{
				"index":0
			},
			"name":"Material.010",
			"pbrMetallicRoughness":{
				"baseColorFactor":[
					0,
					0,
					0,
					1
				]
			}
		}
	],
	"meshes":[
		{
			"name":"Cube.003",
			"primitives":[
				{
					"attributes":{
						"COLOR_0":0,
						"POSITION":1,
						"TEXCOORD_0":2,
						"NORMAL":3
					},
					"indices":4,
					"material":0
				}
			]
		}
	],
	"textures":[
		{
			"sampler":0,
			"source":0
		}
	],
	"images":[
		{
			
			"name":"expkitchen_room_lightmap",
			"uri":"expkitchen_room_lightmap.ktx2"
		}
	],
	"accessors":[
		{
			"bufferView":0,
			"componentType":5123,
			"count":9412,
			"normalized":true,
			"type":"VEC4"
		},
		{
			"bufferView":1,
			"componentType":5126,
			"count":9412,
			"max":[
				2.736781597137451,
				0.04239568114280701,
				2.2827701568603516
			],
			"min":[
				-2.70764422416687,
				-2.503526210784912,
				-2.790621042251587
			],
			"type":"VEC3"
		},
		{
			"bufferView":2,
			"componentType":5126,
			"count":9412,
			"type":"VEC2"
		},
		{
			"bufferView":3,
			"componentType":5126,
			"count":9412,
			"type":"VEC3"
		},
		{
			"bufferView":4,
			"componentType":5123,
			"count":19353,
			"type":"SCALAR"
		}
	],
	"bufferViews":[
		{
			"buffer":0,
			"byteLength":75296,
			"byteOffset":0,
			"target":34962
		},
		{
			"buffer":0,
			"byteLength":112944,
			"byteOffset":75296,
			"target":34962
		},
		{
			"buffer":0,
			"byteLength":75296,
			"byteOffset":188240,
			"target":34962
		},
		{
			"buffer":0,
			"byteLength":112944,
			"byteOffset":263536,
			"target":34962
		},
		{
			"buffer":0,
			"byteLength":38706,
			"byteOffset":376480,
			"target":34963
		}
	],
	"samplers":[
		{
			"magFilter":9729,
			"minFilter":9987
		}
	],
	"buffers":[
		{
			"byteLength":415188,
			"uri":"expkitchen_room.bin"
		}
	]
}
