{"accessors":[{"bufferView":0,"componentType":5126,"count":4,"max":[0.34631747007369995,1.4901161193847656e-08,1.594205617904663],"min":[-0.3463171720504761,-0.33788537979125977,-0.1929611712694168],"type":"VEC3"},{"bufferView":1,"componentType":5126,"count":4,"type":"VEC2"},{"bufferView":2,"componentType":5126,"count":4,"type":"VEC3"},{"bufferView":3,"componentType":5126,"count":4,"type":"VEC4"},{"bufferView":4,"componentType":5123,"count":6,"type":"SCALAR"},{"bufferView":5,"componentType":5126,"count":4,"max":[0.34631747007369995,1.4901161193847656e-08,1.594205617904663],"min":[-0.3463171720504761,-0.33788537979125977,-0.1929611712694168],"type":"VEC3"},{"bufferView":6,"componentType":5126,"count":4,"type":"VEC2"},{"bufferView":7,"componentType":5126,"count":4,"type":"VEC3"},{"bufferView":8,"componentType":5126,"count":4,"type":"VEC4"},{"bufferView":9,"componentType":5126,"count":4,"max":[0.34631747007369995,1.4901161193847656e-08,1.594205617904663],"min":[-0.3463171720504761,-0.33788537979125977,-0.1929611712694168],"type":"VEC3"},{"bufferView":10,"componentType":5126,"count":4,"type":"VEC2"},{"bufferView":11,"componentType":5126,"count":4,"type":"VEC3"},{"bufferView":12,"componentType":5126,"count":4,"type":"VEC4"},{"bufferView":13,"componentType":5126,"count":4,"max":[0.34631747007369995,1.4901161193847656e-08,1.594205617904663],"min":[-0.3463171720504761,-0.33788537979125977,-0.1929611712694168],"type":"VEC3"},{"bufferView":14,"componentType":5126,"count":4,"type":"VEC2"},{"bufferView":15,"componentType":5126,"count":4,"type":"VEC3"},{"bufferView":16,"componentType":5126,"count":4,"type":"VEC4"},{"bufferView":17,"componentType":5126,"count":4,"max":[0.34631747007369995,2.60770320892334e-08,1.594205617904663],"min":[-0.3463171720504761,-0.33788537979125977,-0.10921984910964966],"type":"VEC3"},{"bufferView":18,"componentType":5126,"count":4,"type":"VEC2"},{"bufferView":19,"componentType":5126,"count":4,"type":"VEC3"},{"bufferView":20,"componentType":5126,"count":4,"type":"VEC4"},{"bufferView":21,"componentType":5126,"count":4,"max":[0.34631747007369995,1.4901161193847656e-08,1.594205617904663],"min":[-0.3463171720504761,-0.33788537979125977,-0.1929611712694168],"type":"VEC3"},{"bufferView":22,"componentType":5126,"count":4,"type":"VEC2"},{"bufferView":23,"componentType":5126,"count":4,"type":"VEC3"},{"bufferView":24,"componentType":5126,"count":4,"type":"VEC4"},{"bufferView":25,"componentType":5126,"count":4,"max":[0.34631747007369995,2.9802322387695313e-08,1.594205617904663],"min":[-0.3463171720504761,-0.33788537979125977,-0.029993832111358643],"type":"VEC3"},{"bufferView":26,"componentType":5126,"count":4,"type":"VEC2"},{"bufferView":27,"componentType":5126,"count":4,"type":"VEC3"},{"bufferView":28,"componentType":5126,"count":4,"type":"VEC4"}],"asset":{"generator":"Khronos glTF Blender I/O v3.5.30","version":"2.0"},"bufferViews":[{"buffer":0,"byteLength":48,"byteOffset":0,"target":34962},{"buffer":0,"byteLength":32,"byteOffset":48,"target":34962},{"buffer":0,"byteLength":48,"byteOffset":80,"target":34962},{"buffer":0,"byteLength":64,"byteOffset":128,"target":34962},{"buffer":0,"byteLength":12,"byteOffset":192,"target":34963},{"buffer":0,"byteLength":48,"byteOffset":204,"target":34962},{"buffer":0,"byteLength":32,"byteOffset":252,"target":34962},{"buffer":0,"byteLength":48,"byteOffset":284,"target":34962},{"buffer":0,"byteLength":64,"byteOffset":332,"target":34962},{"buffer":0,"byteLength":48,"byteOffset":396,"target":34962},{"buffer":0,"byteLength":32,"byteOffset":444,"target":34962},{"buffer":0,"byteLength":48,"byteOffset":476,"target":34962},{"buffer":0,"byteLength":64,"byteOffset":524,"target":34962},{"buffer":0,"byteLength":48,"byteOffset":588,"target":34962},{"buffer":0,"byteLength":32,"byteOffset":636,"target":34962},{"buffer":0,"byteLength":48,"byteOffset":668,"target":34962},{"buffer":0,"byteLength":64,"byteOffset":716,"target":34962},{"buffer":0,"byteLength":48,"byteOffset":780,"target":34962},{"buffer":0,"byteLength":32,"byteOffset":828,"target":34962},{"buffer":0,"byteLength":48,"byteOffset":860,"target":34962},{"buffer":0,"byteLength":64,"byteOffset":908,"target":34962},{"buffer":0,"byteLength":48,"byteOffset":972,"target":34962},{"buffer":0,"byteLength":32,"byteOffset":1020,"target":34962},{"buffer":0,"byteLength":48,"byteOffset":1052,"target":34962},{"buffer":0,"byteLength":64,"byteOffset":1100,"target":34962},{"buffer":0,"byteLength":48,"byteOffset":1164,"target":34962},{"buffer":0,"byteLength":32,"byteOffset":1212,"target":34962},{"buffer":0,"byteLength":48,"byteOffset":1244,"target":34962},{"buffer":0,"byteLength":64,"byteOffset":1292,"target":34962}],"buffers":[{"byteLength":1356,"uri":"ExpKitchen.Dust.bin"}],"materials":[{"alphaMode":"BLEND","doubleSided":true,"emissiveFactor":[1,1,1],"name":"Material.038","pbrMetallicRoughness":{"baseColorFactor":[0.800000011920929,0.800000011920929,0.800000011920929,1],"metallicFactor":0,"roughnessFactor":0.5}}],"meshes":[{"name":"Plane.162","primitives":[{"attributes":{"NORMAL":2,"POSITION":0,"TANGENT":3,"TEXCOORD_0":1},"indices":4,"material":0}]},{"name":"Plane.163","primitives":[{"attributes":{"NORMAL":7,"POSITION":5,"TANGENT":8,"TEXCOORD_0":6},"indices":4,"material":0}]},{"name":"Plane.164","primitives":[{"attributes":{"NORMAL":11,"POSITION":9,"TANGENT":12,"TEXCOORD_0":10},"indices":4,"material":0}]},{"name":"Plane.165","primitives":[{"attributes":{"NORMAL":15,"POSITION":13,"TANGENT":16,"TEXCOORD_0":14},"indices":4,"material":0}]},{"name":"Plane.167","primitives":[{"attributes":{"NORMAL":19,"POSITION":17,"TANGENT":20,"TEXCOORD_0":18},"indices":4,"material":0}]},{"name":"Plane.166","primitives":[{"attributes":{"NORMAL":23,"POSITION":21,"TANGENT":24,"TEXCOORD_0":22},"indices":4,"material":0}]},{"name":"Plane.168","primitives":[{"attributes":{"NORMAL":27,"POSITION":25,"TANGENT":28,"TEXCOORD_0":26},"indices":4,"material":0}]}],"nodes":[{"mesh":0,"name":"LightShaft.006","rotation":[-0.019832048565149307,-0.21180827915668488,0.6746382713317871,0.7068290114402771],"scale":[1.4939570426940918,1,1.4104537963867188],"translation":[-0.3696455657482147,1.6664992570877075,-1.7666940689086914]},{"mesh":1,"name":"LightShaft.005","rotation":[-0.019832048565149307,-0.21180827915668488,0.6746382713317871,0.7068290114402771],"scale":[1.4939570426940918,1,1.4104537963867188],"translation":[0.09019309282302856,1.6664992570877075,-1.675636887550354]},{"mesh":2,"name":"LightShaft.004","rotation":[-0.019832048565149307,-0.21180827915668488,0.6746382713317871,0.7068290114402771],"scale":[1.4939570426940918,1,1.4104537963867188],"translation":[0.5045031905174255,1.6664992570877075,-1.6437668800354004]},{"mesh":3,"name":"LightShaft.003","rotation":[0,-0.1653684377670288,0.9862318634986877,7.147733072088158e-08],"scale":[2.337805986404419,1,1.4104540348052979],"translation":[0.01613175868988037,1.8900216817855835,-1.7108087539672852]},{"mesh":4,"name":"LightShaft.002","rotation":[0,-0.1653684377670288,0.9862318634986877,7.147733072088158e-08],"scale":[2.337805986404419,1,1.4104540348052979],"translation":[0.01613175868988037,1.5599849224090576,-1.8390439748764038]},{"mesh":5,"name":"LightShaft.001","rotation":[0,-0.1653684377670288,0.9862318634986877,7.147733072088158e-08],"scale":[2.337805986404419,1,1.4104540348052979],"translation":[0.01613175868988037,1.7058745622634888,-1.7292234897613525]},{"mesh":6,"name":"LightShaft","rotation":[0,-0.1653684377670288,0.9862318634986877,7.147733072088158e-08],"scale":[2.337805986404419,1,1.4104540348052979],"translation":[0.016131699085235596,1.3928617238998413,-1.943698525428772]}],"scene":0,"scenes":[{"extras":{"automirror":{}},"name":"Scene","nodes":[0,1,2,3,4,5,6]}]}