{"accessors":[{"bufferView":0,"componentType":5123,"count":45707,"normalized":true,"type":"VEC4"},{"bufferView":1,"componentType":5126,"count":45707,"max":[3.744492530822754,1.0909483432769775,3.7122130393981934],"min":[-1.4653836488723755,-1.1018238067626953,-0.927020788192749],"type":"VEC3"},{"bufferView":2,"componentType":5126,"count":45707,"type":"VEC2"},{"bufferView":3,"componentType":5126,"count":45707,"type":"VEC3"},{"bufferView":4,"componentType":5123,"count":105753,"type":"SCALAR"}],"asset":{"generator":"Khronos glTF Blender I/O v3.5.30","version":"2.0"},"bufferViews":[{"buffer":0,"byteLength":365656,"byteOffset":0,"target":34962},{"buffer":0,"byteLength":548484,"byteOffset":365656,"target":34962},{"buffer":0,"byteLength":365656,"byteOffset":914140,"target":34962},{"buffer":0,"byteLength":548484,"byteOffset":1279796,"target":34962},{"buffer":0,"byteLength":211506,"byteOffset":1828280,"target":34963}],"buffers":[{"byteLength":2039788,"uri":"ExpKitchen.blend_Props.bin"}],"images":[{"name":"ExpKitchen","uri":"ExpKitchen.blend_Props_lightmap.ktx2"}],"materials":[{"doubleSided":true,"emissiveFactor":[1,1,1],"emissiveTexture":{"index":0},"name":"Material.034","pbrMetallicRoughness":{"baseColorFactor":[0,0,0,1]}}],"meshes":[{"name":"Cube.060","primitives":[{"attributes":{"COLOR_0":0,"NORMAL":3,"POSITION":1,"TEXCOORD_0":2},"indices":4,"material":0}]}],"nodes":[{"mesh":0,"name":"Sponge","translation":[-0.363092839717865,1.0980308055877686,-1.5441272258758545]}],"samplers":[{"magFilter":9729,"minFilter":9987}],"scene":0,"scenes":[{"extras":{"automirror":{}},"name":"Scene","nodes":[0]}],"textures":[{"sampler":0,"source":0}]}