{"accessors":[{"bufferView":0,"componentType":5123,"count":24,"normalized":true,"type":"VEC4"},{"bufferView":1,"componentType":5126,"count":24,"max":[2.6784827709198,0.04239568114280701,2.1658453941345215],"min":[-2.6784825325012207,-0.04239568114280701,-2.1658456325531006],"type":"VEC3"},{"bufferView":2,"componentType":5126,"count":24,"type":"VEC2"},{"bufferView":3,"componentType":5126,"count":24,"type":"VEC3"},{"bufferView":4,"componentType":5123,"count":36,"type":"SCALAR"}],"asset":{"generator":"Khronos glTF Blender I/O v3.5.30","version":"2.0"},"bufferViews":[{"buffer":0,"byteLength":192,"byteOffset":0,"target":34962},{"buffer":0,"byteLength":288,"byteOffset":192,"target":34962},{"buffer":0,"byteLength":192,"byteOffset":480,"target":34962},{"buffer":0,"byteLength":288,"byteOffset":672,"target":34962},{"buffer":0,"byteLength":72,"byteOffset":960,"target":34963}],"buffers":[{"byteLength":1032,"uri":"ExpKitchen.blend_Ceiling.bin"}],"images":[{"name":"ExpKitchen","uri":"ExpKitchen.blend_Ceiling_lightmap.ktx2"}],"materials":[{"doubleSided":true,"emissiveFactor":[1,1,1],"emissiveTexture":{"index":0},"name":"Material.037","pbrMetallicRoughness":{"baseColorFactor":[0,0,0,1]}}],"meshes":[{"name":"Cube.003","primitives":[{"attributes":{"COLOR_0":0,"NORMAL":3,"POSITION":1,"TEXCOORD_0":2},"indices":4,"material":0}]}],"nodes":[{"mesh":0,"name":"Ceiling","translation":[0.8496828675270081,2.4807958602905273,0.31070876121520996]}],"samplers":[{"magFilter":9729,"minFilter":9987}],"scene":0,"scenes":[{"extras":{"automirror":{}},"name":"Scene","nodes":[0]}],"textures":[{"sampler":0,"source":0}]}