{"accessors":[{"bufferView":0,"componentType":5123,"count":4848,"normalized":true,"type":"VEC4"},{"bufferView":1,"componentType":5126,"count":4848,"max":[1.552280068397522,5.356440544128418,0.9999998211860657],"min":[-2.753074884414673,-0.0005258776945993304,-1.438400387763977],"type":"VEC3"},{"bufferView":2,"componentType":5126,"count":4848,"type":"VEC2"},{"bufferView":3,"componentType":5126,"count":4848,"type":"VEC3"},{"bufferView":4,"componentType":5123,"count":7278,"type":"SCALAR"}],"asset":{"generator":"Khronos glTF Blender I/O v3.5.30","version":"2.0"},"bufferViews":[{"buffer":0,"byteLength":38784,"byteOffset":0,"target":34962},{"buffer":0,"byteLength":58176,"byteOffset":38784,"target":34962},{"buffer":0,"byteLength":38784,"byteOffset":96960,"target":34962},{"buffer":0,"byteLength":58176,"byteOffset":135744,"target":34962},{"buffer":0,"byteLength":14556,"byteOffset":193920,"target":34963}],"buffers":[{"byteLength":208476,"uri":"ExpKitchen.blend_Wallpaper_Trim.bin"}],"images":[{"name":"ExpKitchen","uri":"ExpKitchen.blend_Wallpaper_Trim_lightmap.ktx2"}],"materials":[{"doubleSided":true,"emissiveFactor":[1,1,1],"emissiveTexture":{"index":0},"name":"Material","pbrMetallicRoughness":{"baseColorFactor":[0,0,0,1]}}],"meshes":[{"name":"Plane.083","primitives":[{"attributes":{"COLOR_0":0,"NORMAL":3,"POSITION":1,"TEXCOORD_0":2},"indices":4,"material":0}]}],"nodes":[{"mesh":0,"name":"Plane.055","rotation":[0.5,0.5,-0.5,0.5],"translation":[-1.8282744884490967,1,-0.2765199542045593]}],"samplers":[{"magFilter":9729,"minFilter":9987}],"scene":0,"scenes":[{"extras":{"automirror":{}},"name":"Scene","nodes":[0]}],"textures":[{"sampler":0,"source":0}]}