{"accessors":[{"bufferView":0,"componentType":5123,"count":674,"normalized":true,"type":"VEC4"},{"bufferView":1,"componentType":5126,"count":674,"max":[1.5784035921096802,-1.7925493717193604,0.702000081539154],"min":[-0.13688568770885468,-1.9068289995193481,0.09539660066366196],"type":"VEC3"},{"bufferView":2,"componentType":5126,"count":674,"type":"VEC2"},{"bufferView":3,"componentType":5126,"count":674,"type":"VEC3"},{"bufferView":4,"componentType":5126,"count":674,"type":"VEC4"},{"bufferView":5,"componentType":5123,"count":1752,"type":"SCALAR"}],"asset":{"generator":"Khronos glTF Blender I/O v3.5.30","version":"2.0"},"bufferViews":[{"buffer":0,"byteLength":5392,"byteOffset":0,"target":34962},{"buffer":0,"byteLength":8088,"byteOffset":5392,"target":34962},{"buffer":0,"byteLength":5392,"byteOffset":13480,"target":34962},{"buffer":0,"byteLength":8088,"byteOffset":18872,"target":34962},{"buffer":0,"byteLength":10784,"byteOffset":26960,"target":34962},{"buffer":0,"byteLength":3504,"byteOffset":37744,"target":34963}],"buffers":[{"byteLength":41248,"uri":"ExpKitchen.blend_Curtains.bin"}],"images":[{"name":"ExpKitchen","uri":"ExpKitchen.blend_Curtains_lightmap.ktx2"}],"materials":[{"alphaMode":"BLEND","doubleSided":true,"emissiveFactor":[1,1,1],"emissiveTexture":{"index":0},"name":"Material.035","pbrMetallicRoughness":{"baseColorFactor":[0.800000011920929,0.800000011920929,0.800000011920929,0.5],"metallicFactor":0,"roughnessFactor":0.5}}],"meshes":[{"name":"Plane.157","primitives":[{"attributes":{"COLOR_0":0,"NORMAL":3,"POSITION":1,"TANGENT":4,"TEXCOORD_0":2},"indices":5,"material":0}]}],"nodes":[{"extras":{"AlphaMode":"premultiplied"},"mesh":0,"name":"Plane.009","rotation":[0.7071068286895752,0,0,0.7071068286895752],"translation":[-0.7224171757698059,1.8680408000946045,0.008409766480326653]}],"samplers":[{"magFilter":9729,"minFilter":9987}],"scene":0,"scenes":[{"extras":{"automirror":{}},"name":"Scene","nodes":[0]}],"textures":[{"sampler":0,"source":0}]}