{"accessors":[{"bufferView":0,"componentType":5123,"count":7447,"normalized":true,"type":"VEC4"},{"bufferView":1,"componentType":5126,"count":7447,"max":[3.6362133026123047,2.4384002685546875,3.018606185913086],"min":[-1.8056501150131226,-0.7862066030502319,-1.9928172826766968],"type":"VEC3"},{"bufferView":2,"componentType":5126,"count":7447,"type":"VEC2"},{"bufferView":3,"componentType":5126,"count":7447,"type":"VEC3"},{"bufferView":4,"componentType":5123,"count":18231,"type":"SCALAR"}],"asset":{"generator":"Khronos glTF Blender I/O v3.5.30","version":"2.0"},"bufferViews":[{"buffer":0,"byteLength":59576,"byteOffset":0,"target":34962},{"buffer":0,"byteLength":89364,"byteOffset":59576,"target":34962},{"buffer":0,"byteLength":59576,"byteOffset":148940,"target":34962},{"buffer":0,"byteLength":89364,"byteOffset":208516,"target":34962},{"buffer":0,"byteLength":36462,"byteOffset":297880,"target":34963}],"buffers":[{"byteLength":334344,"uri":"ExpKitchen.blend_Room.bin"}],"images":[{"name":"ExpKitchen","uri":"ExpKitchen.blend_Room_lightmap.ktx2"}],"materials":[{"doubleSided":true,"emissiveFactor":[1,1,1],"emissiveTexture":{"index":0},"name":"Material.024","pbrMetallicRoughness":{"baseColorFactor":[0,0,0,1]}}],"meshes":[{"name":"Cube.041","primitives":[{"attributes":{"COLOR_0":0,"NORMAL":3,"POSITION":1,"TEXCOORD_0":2},"indices":4,"material":0}]}],"nodes":[{"mesh":0,"name":"Floor","translation":[-0.049748897552490234,0,-0.4870952367782593]}],"samplers":[{"magFilter":9729,"minFilter":9987}],"scene":0,"scenes":[{"extras":{"automirror":{}},"name":"Scene","nodes":[0]}],"textures":[{"sampler":0,"source":0}]}