{
	"asset":{
		"generator":"Khronos glTF Blender I/O v3.5.30",
		"version":"2.0"
	},
	"scene":0,
	"scenes":[
		{
			"extras":{
				"automirror":{}
			},
			"name":"Scene",
			"nodes":[
				0
			]
		}
	],
	"nodes":[
		{
			"mesh":0,
			"name":"Cylinder.022",
			"rotation":[
				-0.6683812141418457,
				0,
				0,
				0.7438189387321472
			],
			"translation":[
				-0.16770505905151367,
				1.243269443511963,
				2.0639853477478027
			]
		}
	],
	"materials":[
		{
			"doubleSided":true,
			"emissiveFactor":[
				1,
				1,
				1
			],
			"emissiveTexture":{
				"index":0
			},
			"name":"Material.025",
			"pbrMetallicRoughness":{
				"baseColorFactor":[
					0,
					0,
					0,
					1
				]
			}
		}
	],
	"meshes":[
		{
			"name":"Cylinder.003",
			"primitives":[
				{
					"attributes":{
						"COLOR_0":0,
						"POSITION":1,
						"TEXCOORD_0":2,
						"NORMAL":3
					},
					"indices":4,
					"material":0
				}
			]
		}
	],
	"textures":[
		{
			"sampler":0,
			"source":0
		}
	],
	"images":[
		{
			
			"name":"expkitchen_stove_lightmap",
			"uri":"expkitchen_stove_lightmap.ktx2"
		}
	],
	"accessors":[
		{
			"bufferView":0,
			"componentType":5123,
			"count":8819,
			"normalized":true,
			"type":"VEC4"
		},
		{
			"bufferView":1,
			"componentType":5126,
			"count":8819,
			"max":[
				0.40276995301246643,
				0.03377342224121094,
				0.020806550979614258
			],
			"min":[
				-0.3465292155742645,
				-0.08970034122467041,
				-0.16809213161468506
			],
			"type":"VEC3"
		},
		{
			"bufferView":2,
			"componentType":5126,
			"count":8819,
			"type":"VEC2"
		},
		{
			"bufferView":3,
			"componentType":5126,
			"count":8819,
			"type":"VEC3"
		},
		{
			"bufferView":4,
			"componentType":5123,
			"count":15861,
			"type":"SCALAR"
		}
	],
	"bufferViews":[
		{
			"buffer":0,
			"byteLength":70552,
			"byteOffset":0,
			"target":34962
		},
		{
			"buffer":0,
			"byteLength":105828,
			"byteOffset":70552,
			"target":34962
		},
		{
			"buffer":0,
			"byteLength":70552,
			"byteOffset":176380,
			"target":34962
		},
		{
			"buffer":0,
			"byteLength":105828,
			"byteOffset":246932,
			"target":34962
		},
		{
			"buffer":0,
			"byteLength":31722,
			"byteOffset":352760,
			"target":34963
		}
	],
	"samplers":[
		{
			"magFilter":9729,
			"minFilter":9987
		}
	],
	"buffers":[
		{
			"byteLength":384484,
			"uri":"expkitchen_stove.bin"
		}
	]
}
