{
	"asset":{
		"generator":"Khronos glTF Blender I/O v3.5.30",
		"version":"2.0"
	},
	"scene":0,
	"scenes":[
		{
			"extras":{
				"automirror":{
					"axis":2
				}
			},
			"name":"Scene",
			"nodes":[
				0
			]
		}
	],
	"nodes":[
		{
			"extras":{
				"ant_landscape":{}
			},
			"mesh":0,
			"name":"Cube.052",
			"translation":[
				-0.14759527146816254,
				-0.08841216564178467,
				0
			]
		}
	],
	"materials":[
		{
			"doubleSided":true,
			"emissiveFactor":[
				1,
				1,
				1
			],
			"emissiveTexture":{
				"index":0
			},
			"name":"Material",
			"pbrMetallicRoughness":{
				"baseColorFactor":[
					0,
					0,
					0,
					1
				]
			}
		}
	],
	"meshes":[
		{
			"name":"Cube.113",
			"primitives":[
				{
					"attributes":{
						"COLOR_0":0,
						"POSITION":1,
						"TEXCOORD_0":2,
						"NORMAL":3
					},
					"indices":4,
					"material":0
				}
			]
		}
	],
	"textures":[
		{
			"sampler":0,
			"source":0
		}
	],
	"images":[
		{
			
			"name":"expgun_gun_lightmap",
			"uri":"expgun_gun_lightmap.ktx2"
		}
	],
	"accessors":[
		{
			"bufferView":0,
			"componentType":5123,
			"count":13112,
			"normalized":true,
			"type":"VEC4"
		},
		{
			"bufferView":1,
			"componentType":5126,
			"count":13112,
			"max":[
				0.0387195460498333,
				0.16908279061317444,
				0.4373577833175659
			],
			"min":[
				-0.03871941566467285,
				-0.16420993208885193,
				-0.6568912863731384
			],
			"type":"VEC3"
		},
		{
			"bufferView":2,
			"componentType":5126,
			"count":13112,
			"type":"VEC2"
		},
		{
			"bufferView":3,
			"componentType":5126,
			"count":13112,
			"type":"VEC3"
		},
		{
			"bufferView":4,
			"componentType":5123,
			"count":20436,
			"type":"SCALAR"
		}
	],
	"bufferViews":[
		{
			"buffer":0,
			"byteLength":104896,
			"byteOffset":0,
			"target":34962
		},
		{
			"buffer":0,
			"byteLength":157344,
			"byteOffset":104896,
			"target":34962
		},
		{
			"buffer":0,
			"byteLength":104896,
			"byteOffset":262240,
			"target":34962
		},
		{
			"buffer":0,
			"byteLength":157344,
			"byteOffset":367136,
			"target":34962
		},
		{
			"buffer":0,
			"byteLength":40872,
			"byteOffset":524480,
			"target":34963
		}
	],
	"samplers":[
		{
			"magFilter":9729,
			"minFilter":9987
		}
	],
	"buffers":[
		{
			"byteLength":565352,
			"uri":"expgun_gun.bin"
		}
	]
}
