{
	"asset":{
		"generator":"Khronos glTF Blender I/O v3.5.30",
		"version":"2.0"
	},
	"scene":0,
	"scenes":[
		{
			"extras":{
				"automirror":{
					"axis":2
				}
			},
			"name":"Scene",
			"nodes":[
				0
			]
		}
	],
	"nodes":[
		{
			"extras":{
				"ant_landscape":{}
			},
			"mesh":0,
			"name":"New Try",
			"translation":[
				-0.14759527146816254,
				-0.08841216564178467,
				0
			]
		}
	],
	"materials":[
		{
			"doubleSided":true,
			"emissiveFactor":[
				1,
				0.22817674279212952,
				0.9242221713066101
			],
			"name":"Emission",
			"pbrMetallicRoughness":{
				"baseColorFactor":[
					0,
					0,
					0,
					1
				]
			}
		}
	],
	"meshes":[
		{
			"name":"New Try",
			"primitives":[
				{
					"attributes":{
						"POSITION":0,
						"TEXCOORD_0":1,
						"NORMAL":2,
						"TANGENT":3
					},
					"indices":4,
					"material":0
				}
			]
		}
	],
	"accessors":[
		{
			"bufferView":0,
			"componentType":5126,
			"count":270,
			"max":[
				0.0134083591401577,
				0.09169648587703705,
				0.4098418653011322
			],
			"min":[
				-0.013660753145813942,
				0.03841911256313324,
				-0.6332921981811523
			],
			"type":"VEC3"
		},
		{
			"bufferView":1,
			"componentType":5126,
			"count":270,
			"type":"VEC2"
		},
		{
			"bufferView":2,
			"componentType":5126,
			"count":270,
			"type":"VEC3"
		},
		{
			"bufferView":3,
			"componentType":5126,
			"count":270,
			"type":"VEC4"
		},
		{
			"bufferView":4,
			"componentType":5123,
			"count":1272,
			"type":"SCALAR"
		}
	],
	"bufferViews":[
		{
			"buffer":0,
			"byteLength":3240,
			"byteOffset":0,
			"target":34962
		},
		{
			"buffer":0,
			"byteLength":2160,
			"byteOffset":3240,
			"target":34962
		},
		{
			"buffer":0,
			"byteLength":3240,
			"byteOffset":5400,
			"target":34962
		},
		{
			"buffer":0,
			"byteLength":4320,
			"byteOffset":8640,
			"target":34962
		},
		{
			"buffer":0,
			"byteLength":2544,
			"byteOffset":12960,
			"target":34963
		}
	],
	"buffers":[
		{
			"byteLength":15504,
			"uri":"gun_emit_part.bin"
		}
	]
}
